<svg fill="none" xmlns="http://www.w3.org/2000/svg" xmlns:xlink="http://www.w3.org/1999/xlink" version="1.2" baseProfile="tiny" x="0" y="0" width="64" height="64" viewBox="0 0 64 64"><defs><linearGradient id="wps{355dcd8b-7373-4ac1-9adb-8496221b3703}_solid@Accent1_0.00@Accent1_0.00" x1="0" y1="0" x2="1" y2="1" spreadMethod="pad" gradientUnits="objectBoundingBox"><stop offset="0" stop-color="#0eaf6c" stop-opacity="1"/><stop offset="1" stop-color="#0eaf6c" stop-opacity="1"/></linearGradient></defs><defs/><g id="Property 1=cube,&amp;#230;&amp;#150;&amp;#135;&amp;#228;&amp;#187;&amp;#182;&amp;#231;&amp;#180;&amp;#162;&amp;#229;&amp;#188;&amp;#149;=1"><g id="cube"><g id="group-0"><path id="area1" stroke="#3f48cc" stroke-width="6" stroke-linecap="round" stroke-opacity="1" d="M 8.22256 17.3012 L 32.002 31.1726 M 55.7814 17.3012 L 32.002 31.1726 M 32.002 60 L 32.002 31.1726 M 32.002 60 C 30.9306 60 29.8592 59.7229 28.8991 59.1686 L 10.0247 48.2715 C 8.10468 47.1629 6.92188 45.1142 6.92188 42.8971 L 6.92188 21.1029 C 6.92188 19.704 7.39274 18.3722 8.22256 17.3012 M 8.22256 17.3012 C 8.70794 16.6748 9.31613 16.1377 10.0247 15.7285 L 28.8991 4.83141 C 30.8192 3.72286 33.1848 3.72286 35.1049 4.83141 L 53.9793 15.7285 C 54.6879 16.1377 55.296 16.6748 55.7814 17.3012 M 55.7814 17.3012 C 56.6113 18.3722 57.0821 19.704 57.0821 21.1029 L 57.0821 42.8971 C 57.0821 45.1142 55.8993 47.1629 53.9793 48.2715 L 35.1049 59.1686 C 34.1448 59.7229 33.0734 60 32.002 60"/></g></g></g></svg>