<?xml version="1.0" encoding="UTF-8" standalone="yes"?><svg id="图层_1" xmlns="http://www.w3.org/2000/svg" xmlns:xlink="http://www.w3.org/1999/xlink" version="1.2" baseProfile="tiny" x="0" y="0" width="256" height="256" viewBox="0 0 256 256"><defs><linearGradient id="wps{dd627cfc-89ee-465e-b16c-4bf1faddbdbe}_solid@Background1_0.00@Background1_0.00" x1="0" y1="0.5" x2="1" y2="0.5" spreadMethod="pad" gradientUnits="userSpaceOnUse"><stop offset="0" stop-color="#ffffff" stop-opacity="1"/><stop offset="1" stop-color="#ffffff" stop-opacity="1"/></linearGradient><linearGradient id="wps{3f7272c7-b649-4847-b127-49c2869e9282}_solid@Accent1_0.00@Accent1_0.00" x1="0" y1="0.5" x2="1" y2="0.5" spreadMethod="pad" gradientUnits="userSpaceOnUse"><stop offset="0" stop-color="#376fff" stop-opacity="1"/><stop offset="1" stop-color="#376fff" stop-opacity="1"/></linearGradient></defs><defs/><defs/><defs/><defs/><defs/><defs/><defs/><defs/><g transform="matrix(1.33056,0,0,1.33056,-42.3118,-42.1588)"><switch><g><g display="none"><g display="inline"><g id="图标网格_xFF08_导出需删除_xFF09__4_"><g id="网格_3_"><g><g><line fill="none" stroke="#cccccc" stroke-width="0.5" stroke-miterlimit="10" x1="0.25" y1="7.883" x2="256.25" y2="7.883"/></g><g><line fill="none" stroke="#cccccc" stroke-width="0.5" stroke-miterlimit="10" x1="0.25" y1="15.883" x2="256.25" y2="15.883"/></g><g><line fill="none" stroke="#cccccc" stroke-width="0.5" stroke-miterlimit="10" x1="0.25" y1="87.883" x2="256.25" y2="87.883"/></g><g><line fill="none" stroke="#cccccc" stroke-width="0.5" stroke-miterlimit="10" x1="0.25" y1="79.883" x2="256.25" y2="79.883"/></g><g><line fill="none" stroke="#cccccc" stroke-width="0.5" stroke-miterlimit="10" x1="0.25" y1="71.883" x2="256.25" y2="71.883"/></g><g><line fill="none" stroke="#cccccc" stroke-width="0.5" stroke-miterlimit="10" x1="0.25" y1="63.883" x2="256.25" y2="63.883"/></g><g><line fill="none" stroke="#cccccc" stroke-width="0.5" stroke-miterlimit="10" x1="0.25" y1="55.883" x2="256.25" y2="55.883"/></g><g><line fill="none" stroke="#cccccc" stroke-width="0.5" stroke-miterlimit="10" x1="0.25" y1="47.883" x2="256.25" y2="47.883"/></g><g><line fill="none" stroke="#cccccc" stroke-width="0.5" stroke-miterlimit="10" x1="0.25" y1="39.883" x2="256.25" y2="39.883"/></g><g><line fill="none" stroke="#cccccc" stroke-width="0.5" stroke-miterlimit="10" x1="0.25" y1="31.883" x2="256.25" y2="31.883"/></g><g><line fill="none" stroke="#cccccc" stroke-width="0.5" stroke-miterlimit="10" x1="0.25" y1="23.883" x2="256.25" y2="23.883"/></g><g><line fill="none" stroke="#cccccc" stroke-width="0.5" stroke-miterlimit="10" x1="0.25" y1="95.883" x2="256.25" y2="95.883"/></g><g><line fill="none" stroke="#cccccc" stroke-width="0.5" stroke-miterlimit="10" x1="0.25" y1="103.883" x2="256.25" y2="103.883"/></g><g><line fill="none" stroke="#cccccc" stroke-width="0.5" stroke-miterlimit="10" x1="0.25" y1="175.883" x2="256.25" y2="175.883"/></g><g><line fill="none" stroke="#cccccc" stroke-width="0.5" stroke-miterlimit="10" x1="0.25" y1="167.883" x2="256.25" y2="167.883"/></g><g><line fill="none" stroke="#cccccc" stroke-width="0.5" stroke-miterlimit="10" x1="0.25" y1="159.883" x2="256.25" y2="159.883"/></g><g><line fill="none" stroke="#cccccc" stroke-width="0.5" stroke-miterlimit="10" x1="0.25" y1="151.883" x2="256.25" y2="151.883"/></g><g><line fill="none" stroke="#cccccc" stroke-width="0.5" stroke-miterlimit="10" x1="0.25" y1="143.883" x2="256.25" y2="143.883"/></g><g><line fill="none" stroke="#cccccc" stroke-width="0.5" stroke-miterlimit="10" x1="0.25" y1="135.883" x2="256.25" y2="135.883"/></g><g><line fill="none" stroke="#cccccc" stroke-width="0.5" stroke-miterlimit="10" x1="0.25" y1="127.883" x2="256.25" y2="127.883"/></g><g><line fill="none" stroke="#cccccc" stroke-width="0.5" stroke-miterlimit="10" x1="0.25" y1="119.883" x2="256.25" y2="119.883"/></g><g><line fill="none" stroke="#cccccc" stroke-width="0.5" stroke-miterlimit="10" x1="0.25" y1="111.883" x2="256.25" y2="111.883"/></g><g><line fill="none" stroke="#cccccc" stroke-width="0.5" stroke-miterlimit="10" x1="0.25" y1="183.883" x2="256.25" y2="183.883"/></g><g><line fill="none" stroke="#cccccc" stroke-width="0.5" stroke-miterlimit="10" x1="0.25" y1="191.883" x2="256.25" y2="191.883"/></g><g><line fill="none" stroke="#cccccc" stroke-width="0.5" stroke-miterlimit="10" x1="0.25" y1="247.883" x2="256.25" y2="247.883"/></g><g><line fill="none" stroke="#cccccc" stroke-width="0.5" stroke-miterlimit="10" x1="0.25" y1="239.883" x2="256.25" y2="239.883"/></g><g><line fill="none" stroke="#cccccc" stroke-width="0.5" stroke-miterlimit="10" x1="0.25" y1="231.883" x2="256.25" y2="231.883"/></g><g><line fill="none" stroke="#cccccc" stroke-width="0.5" stroke-miterlimit="10" x1="0.25" y1="223.883" x2="256.25" y2="223.883"/></g><g><line fill="none" stroke="#cccccc" stroke-width="0.5" stroke-miterlimit="10" x1="0.25" y1="215.883" x2="256.25" y2="215.883"/></g><g><line fill="none" stroke="#cccccc" stroke-width="0.5" stroke-miterlimit="10" x1="0.25" y1="207.883" x2="256.25" y2="207.883"/></g><g><line fill="none" stroke="#cccccc" stroke-width="0.5" stroke-miterlimit="10" x1="0.25" y1="199.883" x2="256.25" y2="199.883"/></g></g><g><g><line fill="none" stroke="#cccccc" stroke-width="0.5" stroke-miterlimit="10" x1="248.25" y1="-0.117" x2="248.25" y2="255.883"/></g><g><line fill="none" stroke="#cccccc" stroke-width="0.5" stroke-miterlimit="10" x1="240.25" y1="-0.117" x2="240.25" y2="255.883"/></g><g><line fill="none" stroke="#cccccc" stroke-width="0.5" stroke-miterlimit="10" x1="168.25" y1="-0.117" x2="168.25" y2="255.883"/></g><g><line fill="none" stroke="#cccccc" stroke-width="0.5" stroke-miterlimit="10" x1="176.25" y1="-0.117" x2="176.25" y2="255.883"/></g><g><line fill="none" stroke="#cccccc" stroke-width="0.5" stroke-miterlimit="10" x1="184.25" y1="-0.117" x2="184.25" y2="255.883"/></g><g><line fill="none" stroke="#cccccc" stroke-width="0.5" stroke-miterlimit="10" x1="192.25" y1="-0.117" x2="192.25" y2="255.883"/></g><g><line fill="none" stroke="#cccccc" stroke-width="0.5" stroke-miterlimit="10" x1="200.25" y1="-0.117" x2="200.25" y2="255.883"/></g><g><line fill="none" stroke="#cccccc" stroke-width="0.5" stroke-miterlimit="10" x1="208.25" y1="-0.117" x2="208.25" y2="255.883"/></g><g><line fill="none" stroke="#cccccc" stroke-width="0.5" stroke-miterlimit="10" x1="216.25" y1="-0.117" x2="216.25" y2="255.883"/></g><g><line fill="none" stroke="#cccccc" stroke-width="0.5" stroke-miterlimit="10" x1="224.25" y1="-0.117" x2="224.25" y2="255.883"/></g><g><line fill="none" stroke="#cccccc" stroke-width="0.5" stroke-miterlimit="10" x1="232.25" y1="-0.117" x2="232.25" y2="255.883"/></g><g><line fill="none" stroke="#cccccc" stroke-width="0.5" stroke-miterlimit="10" x1="160.25" y1="-0.117" x2="160.25" y2="255.883"/></g><g><line fill="none" stroke="#cccccc" stroke-width="0.5" stroke-miterlimit="10" x1="152.25" y1="-0.117" x2="152.25" y2="255.883"/></g><g><line fill="none" stroke="#cccccc" stroke-width="0.5" stroke-miterlimit="10" x1="80.25" y1="-0.117" x2="80.25" y2="255.883"/></g><g><line fill="none" stroke="#cccccc" stroke-width="0.5" stroke-miterlimit="10" x1="88.25" y1="-0.117" x2="88.25" y2="255.883"/></g><g><line fill="none" stroke="#cccccc" stroke-width="0.5" stroke-miterlimit="10" x1="96.25" y1="-0.117" x2="96.25" y2="255.883"/></g><g><line fill="none" stroke="#cccccc" stroke-width="0.5" stroke-miterlimit="10" x1="104.25" y1="-0.117" x2="104.25" y2="255.883"/></g><g><line fill="none" stroke="#cccccc" stroke-width="0.5" stroke-miterlimit="10" x1="112.25" y1="-0.117" x2="112.25" y2="255.883"/></g><g><line fill="none" stroke="#cccccc" stroke-width="0.5" stroke-miterlimit="10" x1="120.25" y1="-0.117" x2="120.25" y2="255.883"/></g><g><line fill="none" stroke="#cccccc" stroke-width="0.5" stroke-miterlimit="10" x1="128.25" y1="-0.117" x2="128.25" y2="255.883"/></g><g><line fill="none" stroke="#cccccc" stroke-width="0.5" stroke-miterlimit="10" x1="136.25" y1="-0.117" x2="136.25" y2="255.883"/></g><g><line fill="none" stroke="#cccccc" stroke-width="0.5" stroke-miterlimit="10" x1="144.25" y1="-0.117" x2="144.25" y2="255.883"/></g><g><line fill="none" stroke="#cccccc" stroke-width="0.5" stroke-miterlimit="10" x1="72.25" y1="-0.117" x2="72.25" y2="255.883"/></g><g><line fill="none" stroke="#cccccc" stroke-width="0.5" stroke-miterlimit="10" x1="64.25" y1="-0.117" x2="64.25" y2="255.883"/></g><g><line fill="none" stroke="#cccccc" stroke-width="0.5" stroke-miterlimit="10" x1="8.25" y1="-0.117" x2="8.25" y2="255.883"/></g><g><line fill="none" stroke="#cccccc" stroke-width="0.5" stroke-miterlimit="10" x1="16.25" y1="-0.117" x2="16.25" y2="255.883"/></g><g><line fill="none" stroke="#cccccc" stroke-width="0.5" stroke-miterlimit="10" x1="24.25" y1="-0.117" x2="24.25" y2="255.883"/></g><g><line fill="none" stroke="#cccccc" stroke-width="0.5" stroke-miterlimit="10" x1="32.25" y1="-0.117" x2="32.25" y2="255.883"/></g><g><line fill="none" stroke="#cccccc" stroke-width="0.5" stroke-miterlimit="10" x1="40.25" y1="-0.117" x2="40.25" y2="255.883"/></g><g><line fill="none" stroke="#cccccc" stroke-width="0.5" stroke-miterlimit="10" x1="48.25" y1="-0.117" x2="48.25" y2="255.883"/></g><g><line fill="none" stroke="#cccccc" stroke-width="0.5" stroke-miterlimit="10" x1="56.25" y1="-0.117" x2="56.25" y2="255.883"/></g></g></g><g id="比例示意_4_"><path id="Stroke-127_4_" fill="none" stroke="#666666" stroke-width="0.5" d="M 39.5 224.001 L 216.5 224.001 C 220.642 224.001 224 220.643 224 216.501 L 224 39.501 C 224 35.359 220.642 32.001 216.5 32.001 L 39.5 32.001 C 35.358 32.001 32 35.359 32 39.501 L 32 216.501 C 32 220.644 35.358 224.001 39.5 224.001 Z"/><polygon id="Stroke-128_4_" fill="none" stroke="#666666" stroke-width="0.5" points="32,232.001 224,232.001 224,24.001 32,24.001"/><polygon id="Stroke-129_4_" fill="none" stroke="#666666" stroke-width="0.5" points="24,224.001 232,224.001 232,32.001 24,32.001"/><path id="Stroke-130_4_" fill="none" stroke="#666666" stroke-width="0.5" d="M 232 128.001 C 232 185.439 185.438 232.001 128 232.001 C 70.563 232.001 24 185.439 24 128.001 C 24 70.564 70.563 24.001 128 24.001 C 185.438 24.001 232 70.564 232 128.001 Z"/></g><g id="参考线_4_"><path id="Stroke-132_4_" fill="none" stroke="#666666" stroke-width="0.5" stroke-dasharray="2,2" d="M 175.75 128.119 C 175.75 154.629 154.26 176.119 127.75 176.119 C 101.24 176.119 79.75 154.629 79.75 128.119 C 79.75 101.609 101.24 80.119 127.75 80.119 C 154.26 80.119 175.75 101.61 175.75 128.119 Z"/><line id="Stroke-134_4_" fill="none" stroke="#666666" stroke-width="0.5" stroke-dasharray="2,2" x1="255.75" y1="0.119" x2="-0.25" y2="256.119"/><line id="Stroke-136_4_" fill="none" stroke="#666666" stroke-width="0.5" stroke-dasharray="2,2" x1="-0.25" y1="0.119" x2="255.75" y2="256.119"/><rect id="矩形_3_" fill="none" stroke="#666666" stroke-width="0.5" x="0" y="0.001" width="256" height="256"/></g></g><g id="安全出血位_3_"><defs><path id="SVGID_37_" d="M 232 24.001 L 24 24.001 L 24 232.001 L 232 232.001 L 232 24.001 M 256 0.001 L 256 256.001 L 0 256.001 L 0 0.001 L 256 0.001"/></defs><use x="0" y="0" xlink:href="#SVGID_37_"/><g><defs><rect id="SVGID_39_" x="0" y="0.001" width="256" height="256"/></defs><use x="0" y="0" xlink:href="#SVGID_39_"/><g><g><defs><rect id="SVGID_41_" x="-10" y="-9.999" width="276" height="276"/></defs><use x="0" y="0" xlink:href="#SVGID_41_"/><g><defs><path id="SVGID_43_" d="M 232 24.001 L 24 24.001 L 24 232.001 L 232 232.001 L 232 24.001 M 256 0.001 L 256 256.001 L 0 256.001 L 0 0.001 L 256 0.001"/></defs><use x="0" y="0" xlink:href="#SVGID_43_"/><g><defs><rect id="SVGID_45_" x="0" y="0.001" width="256" height="256"/></defs><use x="0" y="0" xlink:href="#SVGID_45_"/><path fill="#ff5353" opacity="0.3" d="M 232 24.001 L 24 24.001 L 24 232.001 L 232 232.001 L 232 24.001 M 256 0.001 L 256 256.001 L 0 256.001 L 0 0.001 L 256 0.001"/></g></g><g><defs><rect id="SVGID_47_" x="0" y="0.001" width="256" height="256"/></defs><use x="0" y="0" xlink:href="#SVGID_47_"/><path fill="none" stroke="#ff5353" stroke-width="2" stroke-miterlimit="10" d="M 232 24.001 L 24 24.001 L 24 232.001 L 232 232.001 L 232 24.001 M 256 0.001 L 256 256.001 L 0 256.001 L 0 0.001 L 256 0.001"/></g></g></g></g></g></g></g><g><g><path fill="#ffffff" fill-opacity="1" d="M 148.888 102.385 L 107.06 102.385 C 102.557 102.385 98.904 98.733 98.904 94.229 C 98.904 89.725 102.556 86.073 107.06 86.073 L 148.887 86.073 C 153.39 86.073 157.043 89.725 157.043 94.229 C 157.043 98.733 153.391 102.385 148.888 102.385 Z"/></g><g><path fill="#ffffff" fill-opacity="1" d="M 148.888 136.627 L 107.06 136.627 C 102.557 136.627 98.904 132.975 98.904 128.471 C 98.904 123.967 102.556 120.315 107.06 120.315 L 148.887 120.315 C 153.39 120.315 157.043 123.967 157.043 128.471 C 157.033 132.975 153.391 136.627 148.888 136.627 Z"/></g><g><path fill="#ffffff" fill-opacity="1" d="M 128.031 217.376 C 128.021 217.376 128 217.376 127.989 217.376 C 123.558 217.366 119.397 215.187 116.865 211.544 L 95.678 181.1 L 45.31 181.1 C 37.86 181.1 31.8 175.04 31.8 167.59 L 31.8 51.904 C 31.8 44.454 37.86 38.394 45.31 38.394 L 210.69 38.394 C 218.14 38.394 224.2 44.454 224.2 51.904 L 224.2 144.991 C 224.2 164.893 208.002 181.091 188.101 181.091 L 160.645 181.091 L 139.155 211.598 C 136.602 215.218 132.451 217.376 128.031 217.376 M 48.112 164.789 L 95.677 164.789 C 101.01 164.789 106.012 167.404 109.063 171.783 L 128.052 199.063 L 147.487 171.472 C 150.434 167.28 155.259 164.79 160.374 164.79 L 188.11 164.79 C 199.026 164.79 207.908 155.908 207.908 144.992 L 207.908 54.695 L 48.112 54.695 L 48.112 164.789"/></g></g></g></switch></g></svg>
