<?xml version="1.0" encoding="UTF-8" standalone="yes"?><svg id="_图层_1" xmlns="http://www.w3.org/2000/svg" xmlns:xlink="http://www.w3.org/1999/xlink" version="1.2" baseProfile="tiny" x="0" y="0" width="256" height="256" viewBox="0 0 256 256"><defs/><defs/><defs/><defs/><defs/><defs><clipPath id="clippath" clipPathUnits="userSpaceOnUse"><rect class="cls-1" fill="none" stroke-width="0" x="0" y="0" width="256" height="256"/></clipPath></defs><g class="cls-3" clip-path="url(#clippath)"><g id="_å_ç_é__10758978207.æ_ç_"><g id="Group"><g id="Group_2"><path id="Vector" fill="#285ca9" fill-opacity="1" stroke-width="0" d="M 188.25 139.79 C 190.88 139.79 193.47 140.76 195.48 142.77 C 199.5 146.76 199.57 153.28 195.55 157.3 L 143.85 209.13 C 139.86 213.15 133.34 213.22 129.32 209.2 C 125.3 205.21 125.23 198.69 129.25 194.67 L 181.01 142.78 C 183.02 140.77 185.62 139.8 188.24 139.8 L 188.25 139.79 M 165.9 117.44 C 168.53 117.44 171.12 118.48 173.13 120.49 C 177.15 124.48 177.22 130.93 173.19 134.96 L 121.43 186.85 C 117.44 190.87 110.92 190.94 106.9 186.92 C 102.88 182.93 102.91 176.41 106.9 172.39 L 158.6 120.5 C 160.58 118.49 163.27 117.45 165.9 117.45 L 165.9 117.44 M 143.39 95.06 C 146.02 95.06 148.68 96.03 150.69 98.04 C 154.71 102.03 154.68 108.55 150.69 112.57 L 98.99 164.46 C 95 168.48 88.48 168.45 84.46 164.46 C 80.44 160.47 80.37 153.95 84.4 149.93 L 136.16 98.04 C 138.17 96.03 140.77 95.06 143.39 95.06 M 17.12 24.87 L 22.83 134.69 L 149.09 255.93 L 238.8 159.73 L 123.28 41.35 L 72.97 33.6 C 71.58 35.64 70.44 37.75 69.6 39.96 C 66.49 48 66.68 57.05 69.02 65.71 C 69.64 68.05 70.19 69.63 70.48 70.28 C 73.33 76.7 70.48 84.23 64.06 87.08 C 57.64 89.93 50.05 87.02 47.19 80.59 C 46.93 80.04 46.61 79.16 46.18 78.06 C 45.56 76.34 44.95 74.39 44.4 72.29 C 40.8 58.89 40.51 44.56 45.86 30.74 C 46.02 30.29 46.35 29.93 46.51 29.48 L 17.13 24.87 L 17.12 24.87"/></g><g id="Group_3"><path id="Vector_2" fill="#285ca9" fill-opacity="1" stroke-width="0" d="M 99.6 0.06 C 92.4 0.38 85.23 1.97 78.23 4.5 C 75.57 5.47 73.17 6.51 71 7.55 C 69.67 8.2 68.66 8.72 68.08 9.07 L 67.76 9.26 C 57.35 16.17 51.02 26.35 48.33 38.58 C 46.12 48.5 46.42 58.92 48.14 68.78 C 48.66 71.7 49.15 73.84 49.53 75.14 C 50.67 79.1 54.82 81.37 58.74 80.26 C 62.7 79.12 64.9 75.04 63.77 71.11 C 63.74 70.95 63.64 70.53 63.51 69.91 C 63.25 68.84 62.96 67.57 62.7 66.18 C 61.27 58.07 61.11 49.51 62.83 41.76 C 64.78 33.04 68.93 26.26 75.9 21.65 C 76.22 21.46 76.68 21.26 77.49 20.84 C 79.21 20 81.16 19.19 83.33 18.37 C 94.36 14.38 105.68 13.41 115.99 17.11 C 128.22 21.49 138.37 32.29 145.8 51.55 C 147.26 55.38 151.6 57.32 155.43 55.86 C 159.26 54.4 161.14 50.05 159.68 46.23 C 150.79 23.14 137.56 9.03 121.05 3.09 C 114 0.65 106.77 -0.26 99.6 0.06 Z"/></g></g></g></g></svg>
