<?xml version='1.0' encoding='utf-8'?>
<!-- Generator: Adobe Illustrator 23.0.0, SVG Export Plug-In . SVG Version: 6.00 Build 0)  -->
<svg y="0px" xml:space="preserve" xmlns="http://www.w3.org/2000/svg" id="图层_1" width="256" xmlns:xlink="http://www.w3.org/1999/xlink" viewBox="0 0 256 256" style="enable-background:new 0 0 1024 1024;" height="256" version="1.1" x="0px">
    <style type="text/css">&#xd;
	.st0{display:none;}&#xd;
	.st1{display:inline;fill:none;}&#xd;
	.st2{fill:#E9E9EA;}&#xd;
	.st3{fill:#231F20;}&#xd;
	.st4{fill-rule:evenodd;clip-rule:evenodd;fill:#ADACAC;}&#xd;
	.st5{fill:#71706F;}&#xd;
	.st6{fill-rule:evenodd;clip-rule:evenodd;fill:#FFB22C;}&#xd;
	.st7{fill-rule:evenodd;clip-rule:evenodd;fill:#F4D06D;}&#xd;
	.st8{fill-rule:evenodd;clip-rule:evenodd;fill:#E9E9EA;}&#xd;
	.st9{fill:#60BAE2;}&#xd;
	.st10{fill-rule:evenodd;clip-rule:evenodd;fill:#60BAE2;}&#xd;
	.st11{fill-rule:evenodd;clip-rule:evenodd;fill:#6DCC6D;}&#xd;
	.st12{fill-rule:evenodd;clip-rule:evenodd;fill:#CAECFC;}&#xd;
</style>
    <g transform="matrix(1,0,0,1,6.000022e-09,-4.0000002e-09)">
        <g transform="matrix(0.25014657,0,0,0.25014657,1.4508501,0.95055697)">
            <g class="st0">
                <polyline class="st1" points="1024,1024 0,1024 0,0 &#x9;"/>
            </g>
            <g>
                <rect y="379.9" class="st2" width="220.8" height="629.8" x="610.2"/>
                <path d="M831,1014.2H610.2c-2.5,0-4.5-2-4.5-4.5V379.9c0-2.5,2-4.5,4.5-4.5H831c2.5,0,4.5,2,4.5,4.5v629.8&#xd;&#xa;&#x9;&#x9;C835.5,1012.2,833.5,1014.2,831,1014.2z M614.7,1005.2h211.8V384.4H614.7V1005.2z" class="st3"/>
            </g>
            <g>
                <path d="M566.9,360.3c0-13.1,10.6-23.7,23.7-23.7h237c13.1,0,23.7,10.6,23.7,23.7l0,0c0,13.1-10.6,23.7-23.7,23.7h-237&#xd;&#xa;&#x9;&#x9;C577.5,384,566.9,373.4,566.9,360.3z" class="st4"/>
                <path d="M827.6,388.5h-237c-15.5,0-28.2-12.7-28.2-28.2c0-15.5,12.7-28.2,28.2-28.2h237c15.5,0,28.2,12.7,28.2,28.2&#xd;&#xa;&#x9;&#x9;C855.8,375.8,843.1,388.5,827.6,388.5z M590.6,341.1c-10.6,0-19.2,8.6-19.2,19.2s8.6,19.2,19.2,19.2h237c10.6,0,19.2-8.6,19.2-19.2&#xd;&#xa;&#x9;&#x9;s-8.6-19.2-19.2-19.2H590.6z" class="st3"/>
            </g>
            <g>
                <path d="M677.9,494.2c-2.5,0-4.5-2-4.5-4.5v-42c0-2.5,2-4.5,4.5-4.5s4.5,2,4.5,4.5v42C682.4,492.2,680.4,494.2,677.9,494.2z"/>
            </g>
            <g>
                <path d="M726.7,494.2c-2.5,0-4.5-2-4.5-4.5v-42c0-2.5,2-4.5,4.5-4.5s4.5,2,4.5,4.5v42C731.2,492.2,729.2,494.2,726.7,494.2z"/>
            </g>
            <g>
                <path d="M775.4,494.2c-2.5,0-4.5-2-4.5-4.5v-42c0-2.5,2-4.5,4.5-4.5s4.5,2,4.5,4.5v42C779.9,492.2,777.9,494.2,775.4,494.2z"/>
            </g>
            <g>
                <path d="M677.9,598.5c-2.5,0-4.5-2-4.5-4.5v-42c0-2.5,2-4.5,4.5-4.5s4.5,2,4.5,4.5v42C682.4,596.5,680.4,598.5,677.9,598.5z"/>
            </g>
            <g>
                <path d="M726.7,598.5c-2.5,0-4.5-2-4.5-4.5v-42c0-2.5,2-4.5,4.5-4.5s4.5,2,4.5,4.5v42C731.2,596.5,729.2,598.5,726.7,598.5z"/>
            </g>
            <g>
                <path d="M775.4,598.5c-2.5,0-4.5-2-4.5-4.5v-42c0-2.5,2-4.5,4.5-4.5s4.5,2,4.5,4.5v42C779.9,596.5,777.9,598.5,775.4,598.5z"/>
            </g>
            <g>
                <path d="M677.9,705.5c-2.5,0-4.5-2-4.5-4.5v-42c0-2.5,2-4.5,4.5-4.5s4.5,2,4.5,4.5v42C682.4,703.5,680.4,705.5,677.9,705.5z"/>
            </g>
            <g>
                <path d="M726.7,705.5c-2.5,0-4.5-2-4.5-4.5v-42c0-2.5,2-4.5,4.5-4.5s4.5,2,4.5,4.5v42C731.2,703.5,729.2,705.5,726.7,705.5z"/>
            </g>
            <g>
                <path d="M775.4,705.5c-2.5,0-4.5-2-4.5-4.5v-42c0-2.5,2-4.5,4.5-4.5s4.5,2,4.5,4.5v42C779.9,703.5,777.9,705.5,775.4,705.5z"/>
            </g>
            <g>
                <path d="M677.9,812.5c-2.5,0-4.5-2-4.5-4.5v-42c0-2.5,2-4.5,4.5-4.5s4.5,2,4.5,4.5v42C682.4,810.5,680.4,812.5,677.9,812.5z"/>
            </g>
            <g>
                <path d="M726.7,812.5c-2.5,0-4.5-2-4.5-4.5v-42c0-2.5,2-4.5,4.5-4.5s4.5,2,4.5,4.5v42C731.2,810.5,729.2,812.5,726.7,812.5z"/>
            </g>
            <g>
                <path d="M775.4,812.5c-2.5,0-4.5-2-4.5-4.5v-42c0-2.5,2-4.5,4.5-4.5s4.5,2,4.5,4.5v42C779.9,810.5,777.9,812.5,775.4,812.5z"/>
            </g>
            <g>
                <path d="M677.9,919.5c-2.5,0-4.5-2-4.5-4.5v-42c0-2.5,2-4.5,4.5-4.5s4.5,2,4.5,4.5v42C682.4,917.5,680.4,919.5,677.9,919.5z"/>
            </g>
            <g>
                <path d="M726.7,919.5c-2.5,0-4.5-2-4.5-4.5v-42c0-2.5,2-4.5,4.5-4.5s4.5,2,4.5,4.5v42C731.2,917.5,729.2,919.5,726.7,919.5z"/>
            </g>
            <g>
                <path d="M775.4,919.5c-2.5,0-4.5-2-4.5-4.5v-42c0-2.5,2-4.5,4.5-4.5s4.5,2,4.5,4.5v42C779.9,917.5,777.9,919.5,775.4,919.5z"/>
            </g>
            <g>
                <rect y="969.1" class="st5" width="209.9" height="37.9" x="617"/>
                <path d="M826.9,1011.5H617c-2.5,0-4.5-2-4.5-4.5v-37.9c0-2.5,2-4.5,4.5-4.5h209.9c2.5,0,4.5,2,4.5,4.5v37.9&#xd;&#xa;&#x9;&#x9;C831.4,1009.5,829.4,1011.5,826.9,1011.5z M621.5,1002.5h200.9v-28.9H621.5V1002.5z" class="st3"/>
            </g>
            <g>
                <path d="M408.4,125.8c-2.5,0-4.5-2-4.5-4.5V0.7c0-2.5,2-4.5,4.5-4.5s4.5,2,4.5,4.5v120.6C412.9,123.8,410.9,125.8,408.4,125.8z"/>
            </g>
            <g>
                <path d="M389.4,131.4c0-10.8,8.8-19.6,19.6-19.6l0,0c10.8,0,19.6,8.8,19.6,19.6V191c0,10.8-8.8,19.6-19.6,19.6l0,0&#xd;&#xa;&#x9;&#x9;c-10.8,0-19.6-8.8-19.6-19.6V131.4z" class="st6"/>
                <path d="M409,215.1c-13.3,0-24.1-10.8-24.1-24.1v-59.6c0-13.3,10.8-24.1,24.1-24.1s24.1,10.8,24.1,24.1V191&#xd;&#xa;&#x9;&#x9;C433.1,204.3,422.3,215.1,409,215.1z M409,116.3c-8.3,0-15.1,6.8-15.1,15.1V191c0,8.3,6.8,15.1,15.1,15.1s15.1-6.8,15.1-15.1v-59.6&#xd;&#xa;&#x9;&#x9;C424.1,123.1,417.3,116.3,409,116.3z" class="st3"/>
            </g>
            <g>
                <path d="M239.1,177.4c0-10.1,8.2-18.3,18.3-18.3h304.8c10.1,0,18.3,8.2,18.3,18.3v73.1c0,10.1-8.2,18.3-18.3,18.3&#xd;&#xa;&#x9;&#x9;H257.4c-10.1,0-18.3-8.2-18.3-18.3L239.1,177.4L239.1,177.4z" class="st7"/>
                <path d="M562.2,273.3H257.4c-12.6,0-22.8-10.2-22.8-22.8v-73.1c0-12.6,10.2-22.8,22.8-22.8h304.8&#xd;&#xa;&#x9;&#x9;c12.6,0,22.8,10.2,22.8,22.8v73.1C585,263.1,574.8,273.3,562.2,273.3z M257.4,163.6c-7.6,0-13.8,6.2-13.8,13.8v73.1&#xd;&#xa;&#x9;&#x9;c0,7.6,6.2,13.8,13.8,13.8h304.8c7.6,0,13.8-6.2,13.8-13.8v-73.1c0-7.6-6.2-13.8-13.8-13.8H257.4z" class="st3"/>
            </g>
            <g>
                <path d="M534.4,220.5H285.1c-2.5,0-4.5-2-4.5-4.5s2-4.5,4.5-4.5h249.3c2.5,0,4.5,2,4.5,4.5S536.9,220.5,534.4,220.5z"/>
            </g>
            <g>
                <path d="M189,275.1c0-11.6,9.4-21.1,21.1-21.1h400.7c11.6,0,21.1,9.4,21.1,21.1V986c0,11.6-9.4,21.1-21.1,21.1H210&#xd;&#xa;&#x9;&#x9;c-11.6,0-21.1-9.4-21.1-21.1V275.1H189z" class="st8"/>
                <path d="M610.8,1011.6H210c-14.1,0-25.6-11.5-25.6-25.6V275.1c0-0.4,0-0.7,0.1-1c0.5-13.6,11.8-24.6,25.6-24.6h400.7&#xd;&#xa;&#x9;&#x9;c14.1,0,25.6,11.5,25.6,25.6V986C636.4,1000.1,624.9,1011.6,610.8,1011.6z M193.4,276v710c0,9.2,7.4,16.6,16.6,16.6h400.8&#xd;&#xa;&#x9;&#x9;c9.2,0,16.6-7.4,16.6-16.6V275.1c0-9.2-7.4-16.6-16.6-16.6H210.1c-9.2,0-16.6,7.4-16.6,16.6C193.5,275.4,193.5,275.7,193.4,276z" class="st3"/>
            </g>
            <g>
                <path d="M245.8,373.6c-2.5,0-4.5-2-4.5-4.5v-37.9c0-2.5,2-4.5,4.5-4.5s4.5,2,4.5,4.5v37.9C250.3,371.6,248.3,373.6,245.8,373.6z"/>
            </g>
            <g>
                <path d="M294.6,373.6c-2.5,0-4.5-2-4.5-4.5v-37.9c0-2.5,2-4.5,4.5-4.5s4.5,2,4.5,4.5v37.9C299.1,371.6,297.1,373.6,294.6,373.6z"/>
            </g>
            <g>
                <path d="M342,373.6c-2.5,0-4.5-2-4.5-4.5v-37.9c0-2.5,2-4.5,4.5-4.5s4.5,2,4.5,4.5v37.9C346.5,371.6,344.5,373.6,342,373.6z"/>
            </g>
            <g>
                <path d="M390.8,373.6c-2.5,0-4.5-2-4.5-4.5v-37.9c0-2.5,2-4.5,4.5-4.5s4.5,2,4.5,4.5v37.9C395.3,371.6,393.3,373.6,390.8,373.6z"/>
            </g>
            <g>
                <path d="M438.2,373.6c-2.5,0-4.5-2-4.5-4.5v-37.9c0-2.5,2-4.5,4.5-4.5s4.5,2,4.5,4.5v37.9C442.7,371.6,440.7,373.6,438.2,373.6z"/>
            </g>
            <g>
                <path d="M486.9,373.6c-2.5,0-4.5-2-4.5-4.5v-37.9c0-2.5,2-4.5,4.5-4.5s4.5,2,4.5,4.5v37.9C491.4,371.6,489.4,373.6,486.9,373.6z"/>
            </g>
            <g>
                <path d="M535.7,373.6c-2.5,0-4.5-2-4.5-4.5v-37.9c0-2.5,2-4.5,4.5-4.5s4.5,2,4.5,4.5v37.9C540.2,371.6,538.2,373.6,535.7,373.6z"/>
            </g>
            <g>
                <path d="M583.1,373.6c-2.5,0-4.5-2-4.5-4.5v-37.9c0-2.5,2-4.5,4.5-4.5s4.5,2,4.5,4.5v37.9C587.6,371.6,585.6,373.6,583.1,373.6z"/>
            </g>
            <g>
                <path d="M244.5,481.9c-2.5,0-4.5-2-4.5-4.5v-37.9c0-2.5,2-4.5,4.5-4.5s4.5,2,4.5,4.5v37.9C249,479.9,247,481.9,244.5,481.9z"/>
            </g>
            <g>
                <path d="M293.2,481.9c-2.5,0-4.5-2-4.5-4.5v-37.9c0-2.5,2-4.5,4.5-4.5s4.5,2,4.5,4.5v37.9C297.7,479.9,295.7,481.9,293.2,481.9z"/>
            </g>
            <g>
                <path d="M340.7,481.9c-2.5,0-4.5-2-4.5-4.5v-37.9c0-2.5,2-4.5,4.5-4.5s4.5,2,4.5,4.5v37.9C345.2,479.9,343.2,481.9,340.7,481.9z"/>
            </g>
            <g>
                <path d="M389.4,481.9c-2.5,0-4.5-2-4.5-4.5v-37.9c0-2.5,2-4.5,4.5-4.5s4.5,2,4.5,4.5v37.9C393.9,479.9,391.9,481.9,389.4,481.9z"/>
            </g>
            <g>
                <path d="M436.8,481.9c-2.5,0-4.5-2-4.5-4.5v-37.9c0-2.5,2-4.5,4.5-4.5s4.5,2,4.5,4.5v37.9C441.3,479.9,439.3,481.9,436.8,481.9z"/>
            </g>
            <g>
                <path d="M485.6,481.9c-2.5,0-4.5-2-4.5-4.5v-37.9c0-2.5,2-4.5,4.5-4.5s4.5,2,4.5,4.5v37.9C490.1,479.9,488.1,481.9,485.6,481.9z"/>
            </g>
            <g>
                <path d="M534.3,481.9c-2.5,0-4.5-2-4.5-4.5v-37.9c0-2.5,2-4.5,4.5-4.5s4.5,2,4.5,4.5v37.9C538.8,479.9,536.8,481.9,534.3,481.9z"/>
            </g>
            <g>
                <path d="M581.8,481.9c-2.5,0-4.5-2-4.5-4.5v-37.9c0-2.5,2-4.5,4.5-4.5s4.5,2,4.5,4.5v37.9C586.3,479.9,584.3,481.9,581.8,481.9z"/>
            </g>
            <g>
                <path d="M243.1,590.3c-2.5,0-4.5-2-4.5-4.5v-37.9c0-2.5,2-4.5,4.5-4.5s4.5,2,4.5,4.5v37.9C247.6,588.3,245.6,590.3,243.1,590.3z"/>
            </g>
            <g>
                <path d="M291.9,590.3c-2.5,0-4.5-2-4.5-4.5v-37.9c0-2.5,2-4.5,4.5-4.5s4.5,2,4.5,4.5v37.9C296.4,588.3,294.4,590.3,291.9,590.3z"/>
            </g>
            <g>
                <path d="M339.3,590.3c-2.5,0-4.5-2-4.5-4.5v-37.9c0-2.5,2-4.5,4.5-4.5s4.5,2,4.5,4.5v37.9C343.8,588.3,341.8,590.3,339.3,590.3z"/>
            </g>
            <g>
                <path d="M388.1,590.3c-2.5,0-4.5-2-4.5-4.5v-37.9c0-2.5,2-4.5,4.5-4.5s4.5,2,4.5,4.5v37.9C392.6,588.3,390.6,590.3,388.1,590.3z"/>
            </g>
            <g>
                <path d="M435.5,590.3c-2.5,0-4.5-2-4.5-4.5v-37.9c0-2.5,2-4.5,4.5-4.5s4.5,2,4.5,4.5v37.9C440,588.3,438,590.3,435.5,590.3z"/>
            </g>
            <g>
                <path d="M484.2,590.3c-2.5,0-4.5-2-4.5-4.5v-37.9c0-2.5,2-4.5,4.5-4.5s4.5,2,4.5,4.5v37.9C488.7,588.3,486.7,590.3,484.2,590.3z"/>
            </g>
            <g>
                <path d="M533,590.3c-2.5,0-4.5-2-4.5-4.5v-37.9c0-2.5,2-4.5,4.5-4.5s4.5,2,4.5,4.5v37.9C537.5,588.3,535.5,590.3,533,590.3z"/>
            </g>
            <g>
                <path d="M580.4,590.3c-2.5,0-4.5-2-4.5-4.5v-37.9c0-2.5,2-4.5,4.5-4.5s4.5,2,4.5,4.5v37.9C584.9,588.3,582.9,590.3,580.4,590.3z"/>
            </g>
            <g>
                <path d="M241.8,698.7c-2.5,0-4.5-2-4.5-4.5v-37.9c0-2.5,2-4.5,4.5-4.5s4.5,2,4.5,4.5v37.9C246.3,696.7,244.3,698.7,241.8,698.7z"/>
            </g>
            <g>
                <path d="M290.5,698.7c-2.5,0-4.5-2-4.5-4.5v-37.9c0-2.5,2-4.5,4.5-4.5s4.5,2,4.5,4.5v37.9C295,696.7,293,698.7,290.5,698.7z"/>
            </g>
            <g>
                <path d="M337.9,698.7c-2.5,0-4.5-2-4.5-4.5v-37.9c0-2.5,2-4.5,4.5-4.5s4.5,2,4.5,4.5v37.9C342.4,696.7,340.4,698.7,337.9,698.7z"/>
            </g>
            <g>
                <path d="M386.7,698.7c-2.5,0-4.5-2-4.5-4.5v-37.9c0-2.5,2-4.5,4.5-4.5s4.5,2,4.5,4.5v37.9C391.2,696.7,389.2,698.7,386.7,698.7z"/>
            </g>
            <g>
                <path d="M434.1,698.7c-2.5,0-4.5-2-4.5-4.5v-37.9c0-2.5,2-4.5,4.5-4.5s4.5,2,4.5,4.5v37.9C438.6,696.7,436.6,698.7,434.1,698.7z"/>
            </g>
            <g>
                <path d="M482.9,698.7c-2.5,0-4.5-2-4.5-4.5v-37.9c0-2.5,2-4.5,4.5-4.5s4.5,2,4.5,4.5v37.9C487.4,696.7,485.4,698.7,482.9,698.7z"/>
            </g>
            <g>
                <path d="M531.6,698.7c-2.5,0-4.5-2-4.5-4.5v-37.9c0-2.5,2-4.5,4.5-4.5s4.5,2,4.5,4.5v37.9C536.1,696.7,534.1,698.7,531.6,698.7z"/>
            </g>
            <g>
                <path d="M579,698.7c-2.5,0-4.5-2-4.5-4.5v-37.9c0-2.5,2-4.5,4.5-4.5s4.5,2,4.5,4.5v37.9C583.5,696.7,581.5,698.7,579,698.7z"/>
            </g>
            <g>
                <path d="M240.4,807c-2.5,0-4.5-2-4.5-4.5v-37.9c0-2.5,2-4.5,4.5-4.5s4.5,2,4.5,4.5v37.9C244.9,805,242.9,807,240.4,807z"/>
            </g>
            <g>
                <path d="M289.2,807c-2.5,0-4.5-2-4.5-4.5v-37.9c0-2.5,2-4.5,4.5-4.5s4.5,2,4.5,4.5v37.9C293.7,805,291.7,807,289.2,807z"/>
            </g>
            <g>
                <path d="M336.6,807c-2.5,0-4.5-2-4.5-4.5v-37.9c0-2.5,2-4.5,4.5-4.5s4.5,2,4.5,4.5v37.9C341.1,805,339.1,807,336.6,807z"/>
            </g>
            <g>
                <path d="M385.4,807c-2.5,0-4.5-2-4.5-4.5v-37.9c0-2.5,2-4.5,4.5-4.5s4.5,2,4.5,4.5v37.9C389.9,805,387.9,807,385.4,807z"/>
            </g>
            <g>
                <path d="M432.8,807c-2.5,0-4.5-2-4.5-4.5v-37.9c0-2.5,2-4.5,4.5-4.5s4.5,2,4.5,4.5v37.9C437.3,805,435.3,807,432.8,807z"/>
            </g>
            <g>
                <path d="M481.5,807c-2.5,0-4.5-2-4.5-4.5v-37.9c0-2.5,2-4.5,4.5-4.5s4.5,2,4.5,4.5v37.9C486,805,484,807,481.5,807z"/>
            </g>
            <g>
                <path d="M530.3,807c-2.5,0-4.5-2-4.5-4.5v-37.9c0-2.5,2-4.5,4.5-4.5s4.5,2,4.5,4.5v37.9C534.8,805,532.8,807,530.3,807z"/>
            </g>
            <g>
                <path d="M577.7,807c-2.5,0-4.5-2-4.5-4.5v-37.9c0-2.5,2-4.5,4.5-4.5s4.5,2,4.5,4.5v37.9C582.2,805,580.2,807,577.7,807z"/>
            </g>
            <g>
                <rect y="877" class="st9" width="146.3" height="126" x="333.9"/>
                <path d="M480.2,1007.5H333.9c-2.5,0-4.5-2-4.5-4.5V877c0-2.5,2-4.5,4.5-4.5h146.3c2.5,0,4.5,2,4.5,4.5v126&#xd;&#xa;&#x9;&#x9;C484.7,1005.5,482.7,1007.5,480.2,1007.5z M338.4,998.5h137.3v-117H338.4V998.5z" class="st3"/>
            </g>
            <g>
                <path d="M319,874.3c0-12,9.7-21.7,21.7-21.7h135.4c12,0,21.7,9.7,21.7,21.7l0,0c0,12-9.7,21.7-21.7,21.7H340.7&#xd;&#xa;&#x9;&#x9;C328.7,896,319,886.3,319,874.3z" class="st7"/>
                <path d="M476.1,900.5H340.7c-14.4,0-26.2-11.8-26.2-26.2s11.8-26.2,26.2-26.2h135.4c14.4,0,26.2,11.8,26.2,26.2&#xd;&#xa;&#x9;&#x9;S490.5,900.5,476.1,900.5z M340.7,857.1c-9.5,0-17.2,7.7-17.2,17.2s7.7,17.2,17.2,17.2h135.4c9.5,0,17.2-7.7,17.2-17.2&#xd;&#xa;&#x9;&#x9;s-7.7-17.2-17.2-17.2H340.7z" class="st3"/>
            </g>
            <g>
                <path d="M407,1007.5c-2.5,0-4.5-2-4.5-4.5V896c0-2.5,2-4.5,4.5-4.5s4.5,2,4.5,4.5v107C411.5,1005.5,409.5,1007.5,407,1007.5z"/>
            </g>
            <g>
                <path d="M855.5,1019.6H164.6c-4.7,0-8.5-3.8-8.5-8.5s3.8-8.5,8.5-8.5h690.9c4.7,0,8.5,3.8,8.5,8.5S860.2,1019.6,855.5,1019.6z"/>
            </g>
            <g>
                <path d="M897.8,180.1h1.8l0.6,3.9c3.8,18.6,19.3,33,38.5,34.9l4,0.2l0,0l-4,0.2c-20.6,2.1-37,18.6-39.1,39.3l-0.2,4&#xd;&#xa;&#x9;&#x9;h-1.2l0,0h-1.4l-0.2-4c-2.1-20.7-18.5-37.2-39.1-39.3l-4-0.2l0,0l4-0.2c19.2-2,34.7-16.3,38.5-34.9l0.6-3.9L897.8,180.1&#xd;&#xa;&#x9;&#x9;L897.8,180.1z" class="st6"/>
            </g>
            <g>
                <path d="M866.9,66.4c0-5.2,4.2-9.5,9.5-9.5s9.5,4.2,9.5,9.5s-4.2,9.5-9.5,9.5S866.9,71.6,866.9,66.4z" class="st10"/>
            </g>
            <g>
                <path d="M866.9,810L866.9,810L866.9,810z M894,782.9l1.4,0.1c3.3,0.7,5.7,3.6,5.7,7v13.3h13.3c3.7,0,6.6,3,6.6,6.6&#xd;&#xa;&#x9;&#x9;l0,0c0,3.7-3,6.6-6.6,6.6h-13.3v13.3c0,4-3.2,7.2-7.2,7.2l0,0c-4,0-7.2-3.2-7.2-7.2v-13.3h-13.3c-3.2,0-5.9-2.3-6.5-5.3l-0.1-1.3&#xd;&#xa;&#x9;&#x9;l0.1-1.3c0.6-3,3.3-5.3,6.5-5.3h13.3V790c0-3.5,2.5-6.4,5.7-7L894,782.9z M894,782.9L894,782.9L894,782.9z" class="st10"/>
            </g>
            <g>
                <path d="M69.1,471.4L69.1,471.4L69.1,471.4z M96.2,444.3l1.4,0.1c3.3,0.7,5.7,3.6,5.7,7v13.3h13.3&#xd;&#xa;&#x9;&#x9;c3.7,0,6.6,3,6.6,6.6l0,0c0,3.7-3,6.6-6.6,6.6h-13.3v13.3c0,4-3.2,7.2-7.2,7.2l0,0c-4,0-7.2-3.2-7.2-7.2V478H75.7&#xd;&#xa;&#x9;&#x9;c-3.2,0-5.9-2.3-6.5-5.3l-0.1-1.3l0.1-1.3c0.6-3,3.3-5.3,6.5-5.3H89v-13.3c0-3.5,2.5-6.4,5.7-7L96.2,444.3z M96.2,444.3L96.2,444.3&#xd;&#xa;&#x9;&#x9;L96.2,444.3z" class="st11"/>
            </g>
            <g>
                <path d="M113.8,593.3c0-5.2,4.2-9.5,9.5-9.5c5.2,0,9.5,4.2,9.5,9.5c0,5.2-4.2,9.5-9.5,9.5S113.8,598.5,113.8,593.3z" class="st7"/>
            </g>
            <g>
                <path d="M599.4,127.3L599.4,127.3L599.4,127.3L599.4,127.3z M716.5,44c26.8,0,49.2,19,54.4,44.3l0.4,4.4h27.8&#xd;&#xa;&#x9;&#x9;c19.1,0,34.5,15.5,34.5,34.5l0,0c0,19.1-15.5,34.5-34.5,34.5H633.9c-14.3,0-26.6-8.7-31.8-21.1l-2.7-13.4l2.7-13.4&#xd;&#xa;&#x9;&#x9;c5.2-12.4,17.5-21.1,31.8-21.1h27.8l0.4-4.4C667.3,63.1,689.7,44,716.5,44z" class="st10"/>
                <path d="M799.1,166.2H633.9c-15.8,0-29.9-9.4-36-23.9c-0.1-0.3-0.2-0.6-0.3-0.9l-2.6-13.1c0-0.2-0.1-0.3-0.1-0.5&#xd;&#xa;&#x9;&#x9;c-0.1-0.5-0.1-1.1,0-1.6l2.7-13.4c0.1-0.3,0.1-0.6,0.3-0.9c6.1-14.5,20.2-23.9,36-23.9h23.7l0-0.3c0-0.2,0-0.3,0.1-0.5&#xd;&#xa;&#x9;&#x9;c5.7-27.7,30.5-47.9,58.8-47.9c28.4,0,53.1,20.1,58.8,47.9c0,0.2,0.1,0.3,0.1,0.5l0,0.3h23.7c21.5,0,39,17.5,39,39&#xd;&#xa;&#x9;&#x9;S820.6,166.2,799.1,166.2z M606.4,139.3c4.8,10.9,15.5,17.9,27.5,17.9h165.2c16.5,0,30-13.5,30-30s-13.5-30-30-30h-27.8&#xd;&#xa;&#x9;&#x9;c-2.3,0-4.3-1.8-4.5-4.1l-0.4-4.1c-4.9-23.5-25.9-40.5-49.9-40.5c-24,0-45,17-49.9,40.5l-0.4,4.1c-0.2,2.3-2.2,4.1-4.5,4.1h-27.8&#xd;&#xa;&#x9;&#x9;c-12,0-22.7,7-27.5,17.9l-2.4,12.1L606.4,139.3z" class="st3"/>
            </g>
            <g>
                <path d="M512.7,173.1L512.7,173.1L512.7,173.1z M589.2,118.5c17.5,0,32.2,12.5,35.5,29.1l0.3,2.9h18.1&#xd;&#xa;&#x9;&#x9;c12.5,0,22.6,10.1,22.6,22.6l0,0c0,12.5-10.1,22.6-22.6,22.6H535.2c-9.3,0-17.4-5.7-20.8-13.8l-1.8-8.8l1.8-8.8&#xd;&#xa;&#x9;&#x9;c3.4-8.1,11.4-13.8,20.8-13.8h18.1l0.3-2.9C557.1,131,571.7,118.5,589.2,118.5z" class="st12"/>
                <path d="M643.1,200.2H535.2c-10.9,0-20.7-6.5-24.9-16.6c-0.1-0.3-0.2-0.6-0.3-0.8l-1.8-8.8c-0.1-0.6-0.1-1.2,0-1.8&#xd;&#xa;&#x9;&#x9;l1.8-8.8c0.1-0.3,0.1-0.6,0.3-0.8c4.2-10.1,14-16.6,24.9-16.6h14.1c4.2-18.6,20.9-32,39.9-32c19.1,0,35.7,13.4,39.8,32h14.1&#xd;&#xa;&#x9;&#x9;c14.9,0,27.1,12.2,27.1,27.1S658,200.2,643.1,200.2z M518.7,180.5c2.9,6.5,9.3,10.7,16.5,10.7h107.9c10,0,18.1-8.1,18.1-18.1&#xd;&#xa;&#x9;&#x9;s-8.1-18.1-18.1-18.1H625c-2.3,0-4.2-1.7-4.5-4l-0.3-2.7c-3-14.7-16-25.3-31-25.3c-14.9,0-27.9,10.6-31.1,25.3l-0.3,2.7&#xd;&#xa;&#x9;&#x9;c-0.2,2.3-2.2,4-4.5,4h-18.1c-7.2,0-13.6,4.2-16.5,10.7l-1.5,7.3c0,0,0,0.1,0,0.1s0,0.1,0,0.1L518.7,180.5z" class="st3"/>
            </g>
            <g>
                <rect y="967.8" class="st5" width="442.9" height="37.9" x="189"/>
                <path d="M631.9,1010.2H189c-2.5,0-4.5-2-4.5-4.5v-37.9c0-2.5,2-4.5,4.5-4.5h442.9c2.5,0,4.5,2,4.5,4.5v37.9&#xd;&#xa;&#x9;&#x9;C636.4,1008.2,634.4,1010.2,631.9,1010.2z M193.5,1001.2h433.9v-28.9H193.5V1001.2z" class="st3"/>
            </g>
        </g>
    </g>
</svg>
