<?xml version="1.0" encoding="UTF-8" standalone="yes"?><svg xmlns="http://www.w3.org/2000/svg" xmlns:xlink="http://www.w3.org/1999/xlink" version="1.2" baseProfile="tiny" x="0" y="0" width="256" height="256" viewBox="0 0 256 256"><defs><linearGradient id="wps{d425ef27-e264-4160-a1cf-8e2ddafda10d}@Accent1_0.40@Accent1_0.00" x1="0" y1="0.5" x2="1" y2="0.5" spreadMethod="pad" gradientUnits="objectBoundingBox" gradientTransform="matrix(0.707107,0.707107,-0.707107,0.707107,0.5,-0.207107)"><stop offset="0" stop-color="#87a9ff" stop-opacity="1"/><stop offset="0.93" stop-color="#376fff" stop-opacity="1"/></linearGradient><linearGradient id="wps{6ae56139-4372-460f-bb16-1b2da3d9fc77}@Accent1_0.40@Accent1_0.00" x1="0" y1="0.5" x2="1" y2="0.5" spreadMethod="pad" gradientUnits="objectBoundingBox" gradientTransform="matrix(0.707107,0.707107,-0.707107,0.707107,0.5,-0.207107)"><stop offset="0" stop-color="#8fe293" stop-opacity="1"/><stop offset="0.93" stop-color="#45cf4b" stop-opacity="1"/></linearGradient><linearGradient id="wps{795036cd-e3e2-478d-8949-81f79aaf252e}@Accent1_0.40@Accent1_0.00" x1="0" y1="0.5" x2="1" y2="0.5" spreadMethod="pad" gradientUnits="objectBoundingBox" gradientTransform="matrix(0.707107,0.707107,-0.707107,0.707107,0.5,-0.207107)"><stop offset="0" stop-color="#8fe293" stop-opacity="1"/><stop offset="0.93" stop-color="#45cf4b" stop-opacity="1"/></linearGradient><linearGradient id="wps{74338916-ffbe-4f25-b21b-002c6a86d08f}@Accent1_0.40@Accent1_0.00" x1="0" y1="0.5" x2="1" y2="0.5" spreadMethod="pad" gradientUnits="objectBoundingBox" gradientTransform="matrix(0.707107,0.707107,-0.707107,0.707107,0.5,-0.207107)"><stop offset="0" stop-color="#f89d8f" stop-opacity="1"/><stop offset="0.93" stop-color="#f35b44" stop-opacity="1"/></linearGradient></defs><defs/><defs/><defs/><defs/><defs/><defs/><defs/><defs/><defs/><defs/><g transform="matrix(9.14694,0,0,9.14694,-18.3511,-18.3511)"><g id="Page-1" fill="none" fill-rule="evenodd" stroke="none" stroke-width="1"><g id="分组-172" fill="#262626" fill-rule="nonzero" transform="matrix(1,0,0,1,-62,2)"><g id="guanxiafanwei" transform="matrix(1,0,0,1,64,0)"><path id="形状" fill="url(#wps{6ae56139-4372-460f-bb16-1b2da3d9fc77}@Accent1_0.40@Accent1_0.00)" d="M 5.18438 19.5375 L 6.12812 20.9969 C 3.87188 21.7781 2.63125 22.6938 2.63125 23.6219 C 2.63125 25.5 8.53438 26.2469 14 26.2469 C 19.4656 26.2469 25.3687 25.5031 25.3687 23.6219 C 25.3687 22.625 23.5281 21.8 20.9969 20.9969 L 22.3 19.4031 C 25.7531 20.2688 27.9937 22.05 27.9937 23.6187 C 27.9937 26.2469 21.7281 27.9937 14 27.9937 C 6.27187 27.9937 0.00625 26.2469 0.00625 23.6187 C 0.00625 22.1281 2.025 20.4125 5.18438 19.5375 M 14 24.4937 C 14 24.4937 3.50625 17.075 3.50625 10.5844 C 3.50625 4.09375 8.20313 0.00625 14 0.00625 C 19.7969 0.00625 24.4937 4.2125 24.4937 10.5844 C 24.4937 16.9594 14 24.4937 14 24.4937 M 14 12.2406 C 15.4469 12.2406 16.625 11.0687 16.625 9.62187 C 16.625 8.175 15.45 7.00312 14 7.00312 C 12.5531 7.00312 11.375 8.175 11.375 9.62187 C 11.375 11.0687 12.5531 12.2406 14 12.2406"/></g></g><g id="IIIII-Copy-29" transform="matrix(1,0,0,1,-64,0)"/></g></g></svg>
