<?xml version="1.0" encoding="UTF-8" standalone="yes"?><svg id="图层_1" xmlns="http://www.w3.org/2000/svg" xmlns:xlink="http://www.w3.org/1999/xlink" version="1.2" baseProfile="tiny" x="0" y="0" width="256" height="256" viewBox="0 0 256 256"><defs><linearGradient id="wps{031b4524-796c-40fc-93ec-dab8c2d2fbfd}_solid@Accent1_0.00@Accent1_0.00" x1="0" y1="0.5" x2="1" y2="0.5" spreadMethod="pad" gradientUnits="userSpaceOnUse"><stop offset="0" stop-color="#376fff" stop-opacity="1"/><stop offset="1" stop-color="#376fff" stop-opacity="1"/></linearGradient><linearGradient id="wps{644696a2-b7ee-43fd-b5bf-7dc773deaf81}_solid@Background1_0.00@Background1_0.00" x1="0" y1="0.5" x2="1" y2="0.5" spreadMethod="pad" gradientUnits="userSpaceOnUse"><stop offset="0" stop-color="#ffffff" stop-opacity="1"/><stop offset="1" stop-color="#ffffff" stop-opacity="1"/></linearGradient></defs><defs/><defs/><defs/><defs/><defs/><defs/><defs/><defs/><g transform="matrix(1.28332,0,0,1.28332,-36.585,-35.951)"><switch><g><g display="none"><g display="inline"><g id="图标网格_xFF08_导出需删除_xFF09__14_"><g id="网格_13_"><g><g><line fill="none" stroke="#cccccc" stroke-width="0.5" stroke-miterlimit="10" x1="0.25" y1="7.883" x2="256.25" y2="7.883"/></g><g><line fill="none" stroke="#cccccc" stroke-width="0.5" stroke-miterlimit="10" x1="0.25" y1="15.883" x2="256.25" y2="15.883"/></g><g><line fill="none" stroke="#cccccc" stroke-width="0.5" stroke-miterlimit="10" x1="0.25" y1="87.883" x2="256.25" y2="87.883"/></g><g><line fill="none" stroke="#cccccc" stroke-width="0.5" stroke-miterlimit="10" x1="0.25" y1="79.883" x2="256.25" y2="79.883"/></g><g><line fill="none" stroke="#cccccc" stroke-width="0.5" stroke-miterlimit="10" x1="0.25" y1="71.883" x2="256.25" y2="71.883"/></g><g><line fill="none" stroke="#cccccc" stroke-width="0.5" stroke-miterlimit="10" x1="0.25" y1="63.883" x2="256.25" y2="63.883"/></g><g><line fill="none" stroke="#cccccc" stroke-width="0.5" stroke-miterlimit="10" x1="0.25" y1="55.883" x2="256.25" y2="55.883"/></g><g><line fill="none" stroke="#cccccc" stroke-width="0.5" stroke-miterlimit="10" x1="0.25" y1="47.883" x2="256.25" y2="47.883"/></g><g><line fill="none" stroke="#cccccc" stroke-width="0.5" stroke-miterlimit="10" x1="0.25" y1="39.883" x2="256.25" y2="39.883"/></g><g><line fill="none" stroke="#cccccc" stroke-width="0.5" stroke-miterlimit="10" x1="0.25" y1="31.883" x2="256.25" y2="31.883"/></g><g><line fill="none" stroke="#cccccc" stroke-width="0.5" stroke-miterlimit="10" x1="0.25" y1="23.883" x2="256.25" y2="23.883"/></g><g><line fill="none" stroke="#cccccc" stroke-width="0.5" stroke-miterlimit="10" x1="0.25" y1="95.883" x2="256.25" y2="95.883"/></g><g><line fill="none" stroke="#cccccc" stroke-width="0.5" stroke-miterlimit="10" x1="0.25" y1="103.883" x2="256.25" y2="103.883"/></g><g><line fill="none" stroke="#cccccc" stroke-width="0.5" stroke-miterlimit="10" x1="0.25" y1="175.883" x2="256.25" y2="175.883"/></g><g><line fill="none" stroke="#cccccc" stroke-width="0.5" stroke-miterlimit="10" x1="0.25" y1="167.883" x2="256.25" y2="167.883"/></g><g><line fill="none" stroke="#cccccc" stroke-width="0.5" stroke-miterlimit="10" x1="0.25" y1="159.883" x2="256.25" y2="159.883"/></g><g><line fill="none" stroke="#cccccc" stroke-width="0.5" stroke-miterlimit="10" x1="0.25" y1="151.883" x2="256.25" y2="151.883"/></g><g><line fill="none" stroke="#cccccc" stroke-width="0.5" stroke-miterlimit="10" x1="0.25" y1="143.883" x2="256.25" y2="143.883"/></g><g><line fill="none" stroke="#cccccc" stroke-width="0.5" stroke-miterlimit="10" x1="0.25" y1="135.883" x2="256.25" y2="135.883"/></g><g><line fill="none" stroke="#cccccc" stroke-width="0.5" stroke-miterlimit="10" x1="0.25" y1="127.883" x2="256.25" y2="127.883"/></g><g><line fill="none" stroke="#cccccc" stroke-width="0.5" stroke-miterlimit="10" x1="0.25" y1="119.883" x2="256.25" y2="119.883"/></g><g><line fill="none" stroke="#cccccc" stroke-width="0.5" stroke-miterlimit="10" x1="0.25" y1="111.883" x2="256.25" y2="111.883"/></g><g><line fill="none" stroke="#cccccc" stroke-width="0.5" stroke-miterlimit="10" x1="0.25" y1="183.883" x2="256.25" y2="183.883"/></g><g><line fill="none" stroke="#cccccc" stroke-width="0.5" stroke-miterlimit="10" x1="0.25" y1="191.883" x2="256.25" y2="191.883"/></g><g><line fill="none" stroke="#cccccc" stroke-width="0.5" stroke-miterlimit="10" x1="0.25" y1="247.883" x2="256.25" y2="247.883"/></g><g><line fill="none" stroke="#cccccc" stroke-width="0.5" stroke-miterlimit="10" x1="0.25" y1="239.883" x2="256.25" y2="239.883"/></g><g><line fill="none" stroke="#cccccc" stroke-width="0.5" stroke-miterlimit="10" x1="0.25" y1="231.883" x2="256.25" y2="231.883"/></g><g><line fill="none" stroke="#cccccc" stroke-width="0.5" stroke-miterlimit="10" x1="0.25" y1="223.883" x2="256.25" y2="223.883"/></g><g><line fill="none" stroke="#cccccc" stroke-width="0.5" stroke-miterlimit="10" x1="0.25" y1="215.883" x2="256.25" y2="215.883"/></g><g><line fill="none" stroke="#cccccc" stroke-width="0.5" stroke-miterlimit="10" x1="0.25" y1="207.883" x2="256.25" y2="207.883"/></g><g><line fill="none" stroke="#cccccc" stroke-width="0.5" stroke-miterlimit="10" x1="0.25" y1="199.883" x2="256.25" y2="199.883"/></g></g><g><g><line fill="none" stroke="#cccccc" stroke-width="0.5" stroke-miterlimit="10" x1="248.25" y1="-0.117" x2="248.25" y2="255.883"/></g><g><line fill="none" stroke="#cccccc" stroke-width="0.5" stroke-miterlimit="10" x1="240.25" y1="-0.117" x2="240.25" y2="255.883"/></g><g><line fill="none" stroke="#cccccc" stroke-width="0.5" stroke-miterlimit="10" x1="168.25" y1="-0.117" x2="168.25" y2="255.883"/></g><g><line fill="none" stroke="#cccccc" stroke-width="0.5" stroke-miterlimit="10" x1="176.25" y1="-0.117" x2="176.25" y2="255.883"/></g><g><line fill="none" stroke="#cccccc" stroke-width="0.5" stroke-miterlimit="10" x1="184.25" y1="-0.117" x2="184.25" y2="255.883"/></g><g><line fill="none" stroke="#cccccc" stroke-width="0.5" stroke-miterlimit="10" x1="192.25" y1="-0.117" x2="192.25" y2="255.883"/></g><g><line fill="none" stroke="#cccccc" stroke-width="0.5" stroke-miterlimit="10" x1="200.25" y1="-0.117" x2="200.25" y2="255.883"/></g><g><line fill="none" stroke="#cccccc" stroke-width="0.5" stroke-miterlimit="10" x1="208.25" y1="-0.117" x2="208.25" y2="255.883"/></g><g><line fill="none" stroke="#cccccc" stroke-width="0.5" stroke-miterlimit="10" x1="216.25" y1="-0.117" x2="216.25" y2="255.883"/></g><g><line fill="none" stroke="#cccccc" stroke-width="0.5" stroke-miterlimit="10" x1="224.25" y1="-0.117" x2="224.25" y2="255.883"/></g><g><line fill="none" stroke="#cccccc" stroke-width="0.5" stroke-miterlimit="10" x1="232.25" y1="-0.117" x2="232.25" y2="255.883"/></g><g><line fill="none" stroke="#cccccc" stroke-width="0.5" stroke-miterlimit="10" x1="160.25" y1="-0.117" x2="160.25" y2="255.883"/></g><g><line fill="none" stroke="#cccccc" stroke-width="0.5" stroke-miterlimit="10" x1="152.25" y1="-0.117" x2="152.25" y2="255.883"/></g><g><line fill="none" stroke="#cccccc" stroke-width="0.5" stroke-miterlimit="10" x1="80.25" y1="-0.117" x2="80.25" y2="255.883"/></g><g><line fill="none" stroke="#cccccc" stroke-width="0.5" stroke-miterlimit="10" x1="88.25" y1="-0.117" x2="88.25" y2="255.883"/></g><g><line fill="none" stroke="#cccccc" stroke-width="0.5" stroke-miterlimit="10" x1="96.25" y1="-0.117" x2="96.25" y2="255.883"/></g><g><line fill="none" stroke="#cccccc" stroke-width="0.5" stroke-miterlimit="10" x1="104.25" y1="-0.117" x2="104.25" y2="255.883"/></g><g><line fill="none" stroke="#cccccc" stroke-width="0.5" stroke-miterlimit="10" x1="112.25" y1="-0.117" x2="112.25" y2="255.883"/></g><g><line fill="none" stroke="#cccccc" stroke-width="0.5" stroke-miterlimit="10" x1="120.25" y1="-0.117" x2="120.25" y2="255.883"/></g><g><line fill="none" stroke="#cccccc" stroke-width="0.5" stroke-miterlimit="10" x1="128.25" y1="-0.117" x2="128.25" y2="255.883"/></g><g><line fill="none" stroke="#cccccc" stroke-width="0.5" stroke-miterlimit="10" x1="136.25" y1="-0.117" x2="136.25" y2="255.883"/></g><g><line fill="none" stroke="#cccccc" stroke-width="0.5" stroke-miterlimit="10" x1="144.25" y1="-0.117" x2="144.25" y2="255.883"/></g><g><line fill="none" stroke="#cccccc" stroke-width="0.5" stroke-miterlimit="10" x1="72.25" y1="-0.117" x2="72.25" y2="255.883"/></g><g><line fill="none" stroke="#cccccc" stroke-width="0.5" stroke-miterlimit="10" x1="64.25" y1="-0.117" x2="64.25" y2="255.883"/></g><g><line fill="none" stroke="#cccccc" stroke-width="0.5" stroke-miterlimit="10" x1="8.25" y1="-0.117" x2="8.25" y2="255.883"/></g><g><line fill="none" stroke="#cccccc" stroke-width="0.5" stroke-miterlimit="10" x1="16.25" y1="-0.117" x2="16.25" y2="255.883"/></g><g><line fill="none" stroke="#cccccc" stroke-width="0.5" stroke-miterlimit="10" x1="24.25" y1="-0.117" x2="24.25" y2="255.883"/></g><g><line fill="none" stroke="#cccccc" stroke-width="0.5" stroke-miterlimit="10" x1="32.25" y1="-0.117" x2="32.25" y2="255.883"/></g><g><line fill="none" stroke="#cccccc" stroke-width="0.5" stroke-miterlimit="10" x1="40.25" y1="-0.117" x2="40.25" y2="255.883"/></g><g><line fill="none" stroke="#cccccc" stroke-width="0.5" stroke-miterlimit="10" x1="48.25" y1="-0.117" x2="48.25" y2="255.883"/></g><g><line fill="none" stroke="#cccccc" stroke-width="0.5" stroke-miterlimit="10" x1="56.25" y1="-0.117" x2="56.25" y2="255.883"/></g></g></g><g id="比例示意_14_"><path id="Stroke-127_14_" fill="none" stroke="#666666" stroke-width="0.5" d="M 39.5 224.001 L 216.5 224.001 C 220.642 224.001 224 220.643 224 216.501 L 224 39.501 C 224 35.359 220.642 32.001 216.5 32.001 L 39.5 32.001 C 35.358 32.001 32 35.359 32 39.501 L 32 216.501 C 32 220.644 35.358 224.001 39.5 224.001 Z"/><polygon id="Stroke-128_14_" fill="none" stroke="#666666" stroke-width="0.5" points="32,232.001 224,232.001 224,24.001 32,24.001"/><polygon id="Stroke-129_14_" fill="none" stroke="#666666" stroke-width="0.5" points="24,224.001 232,224.001 232,32.001 24,32.001"/><path id="Stroke-130_14_" fill="none" stroke="#666666" stroke-width="0.5" d="M 232 128.001 C 232 185.439 185.438 232.001 128 232.001 C 70.563 232.001 24 185.439 24 128.001 C 24 70.564 70.563 24.001 128 24.001 C 185.438 24.001 232 70.564 232 128.001 Z"/></g><g id="参考线_14_"><path id="Stroke-132_14_" fill="none" stroke="#666666" stroke-width="0.5" stroke-dasharray="2,2" d="M 175.75 128.119 C 175.75 154.629 154.26 176.119 127.75 176.119 C 101.24 176.119 79.75 154.629 79.75 128.119 C 79.75 101.609 101.24 80.119 127.75 80.119 C 154.26 80.119 175.75 101.61 175.75 128.119 Z"/><line id="Stroke-134_14_" fill="none" stroke="#666666" stroke-width="0.5" stroke-dasharray="2,2" x1="255.75" y1="0.119" x2="-0.25" y2="256.119"/><line id="Stroke-136_14_" fill="none" stroke="#666666" stroke-width="0.5" stroke-dasharray="2,2" x1="-0.25" y1="0.119" x2="255.75" y2="256.119"/><rect id="矩形_13_" fill="none" stroke="#666666" stroke-width="0.5" x="0" y="0.001" width="256" height="256"/></g></g><g id="安全出血位_13_"><defs><path id="SVGID_157_" d="M 232 24.001 L 24 24.001 L 24 232.001 L 232 232.001 L 232 24.001 M 256 0.001 L 256 256.001 L 0 256.001 L 0 0.001 L 256 0.001"/></defs><use x="0" y="0" xlink:href="#SVGID_157_"/><g><defs><rect id="SVGID_159_" x="0" y="0.001" width="256" height="256"/></defs><use x="0" y="0" xlink:href="#SVGID_159_"/><g><g><defs><rect id="SVGID_161_" x="-10" y="-9.999" width="276" height="276"/></defs><use x="0" y="0" xlink:href="#SVGID_161_"/><g><defs><path id="SVGID_163_" d="M 232 24.001 L 24 24.001 L 24 232.001 L 232 232.001 L 232 24.001 M 256 0.001 L 256 256.001 L 0 256.001 L 0 0.001 L 256 0.001"/></defs><use x="0" y="0" xlink:href="#SVGID_163_"/><g><defs><rect id="SVGID_165_" x="0" y="0.001" width="256" height="256"/></defs><use x="0" y="0" xlink:href="#SVGID_165_"/><path fill="#ff5353" opacity="0.3" d="M 232 24.001 L 24 24.001 L 24 232.001 L 232 232.001 L 232 24.001 M 256 0.001 L 256 256.001 L 0 256.001 L 0 0.001 L 256 0.001"/></g></g><g><defs><rect id="SVGID_167_" x="0" y="0.001" width="256" height="256"/></defs><use x="0" y="0" xlink:href="#SVGID_167_"/><path fill="none" stroke="#ff5353" stroke-width="2" stroke-miterlimit="10" d="M 232 24.001 L 24 24.001 L 24 232.001 L 232 232.001 L 232 24.001 M 256 0.001 L 256 256.001 L 0 256.001 L 0 0.001 L 256 0.001"/></g></g></g></g></g></g></g><g><g><path fill="#ffffff" fill-opacity="1" d="M 149.113 130.478 L 106.325 130.478 C 101.718 130.478 97.982 126.742 97.982 122.135 C 97.982 117.528 101.718 113.792 106.325 113.792 L 149.113 113.792 C 153.72 113.792 157.456 117.528 157.456 122.135 C 157.456 126.741 153.72 130.478 149.113 130.478 Z"/></g><g><path fill="#ffffff" fill-opacity="1" d="M 149.113 167.131 L 106.325 167.131 C 101.718 167.131 97.982 163.395 97.982 158.788 C 97.982 154.181 101.718 150.445 106.325 150.445 L 149.113 150.445 C 153.72 150.445 157.456 154.181 157.456 158.788 C 157.456 163.394 153.72 167.131 149.113 167.131 Z"/></g><g><path fill="#ffffff" fill-opacity="1" d="M 191.063 219.939 L 42.328 219.939 C 34.707 219.939 28.508 213.74 28.508 206.119 L 28.508 49.391 C 28.508 41.77 34.707 35.571 42.328 35.571 L 98.087 35.571 C 102.736 35.571 107.046 37.885 109.604 41.759 L 126.078 66.608 L 214.17 66.608 C 221.791 66.608 227.99 72.807 227.99 80.428 L 227.99 183.01 C 227.992 203.369 211.433 219.939 191.063 219.939 M 45.184 203.263 L 191.063 203.263 C 202.23 203.263 211.316 194.177 211.316 183.01 L 211.316 83.295 L 124.54 83.295 C 119.891 83.295 115.592 80.981 113.023 77.107 L 96.559 52.257 L 45.184 52.257 L 45.184 203.263"/></g></g></g></switch></g></svg>
