<?xml version='1.0' encoding='utf-8'?>
<!-- Generator: Adobe Illustrator 23.0.0, SVG Export Plug-In . SVG Version: 6.00 Build 0)  -->
<svg height="256" xml:space="preserve" viewBox="0 0 256 256" id="图层_1" version="1.1" xmlns:xlink="http://www.w3.org/1999/xlink" style="enable-background:new 0 0 1024 1024;" x="0px" y="0px" xmlns="http://www.w3.org/2000/svg" width="256">
    <style type="text/css">&#xd;
	.st0{fill-rule:evenodd;clip-rule:evenodd;fill:#474F66;}&#xd;
	.st1{fill-rule:evenodd;clip-rule:evenodd;fill:#F2F2F2;}&#xd;
	.st2{fill-rule:evenodd;clip-rule:evenodd;fill:#FFDF9D;}&#xd;
	.st3{clip-path:url(#SVGID_2_);fill:#FFC95C;}&#xd;
	.st4{clip-path:url(#SVGID_2_);fill:#FFC95B;}&#xd;
	.st5{clip-path:url(#SVGID_2_);fill:#FFC85C;}&#xd;
	.st6{clip-path:url(#SVGID_2_);fill:#FFC85B;}&#xd;
	.st7{fill-rule:evenodd;clip-rule:evenodd;fill:#FFE9BE;}&#xd;
	.st8{fill:#F2F2F2;}&#xd;
	.st9{fill-rule:evenodd;clip-rule:evenodd;fill:#D2D4DF;}&#xd;
</style>
    <g transform="matrix(0.99999999,0,0,0.99999999,2.4999999e-07,2.4999999e-07)">
        <g transform="matrix(0.28381375,0,0,0.28381375,-17.312639,-18.447894)">
            <g>
                <path class="st0" d="M724.4,311.3c5.2,51.7-8.7,160.6-3.3,222.2c5.4,61.6,37.2,114.6,35.8,147.3c-1.4,32.7,8.4,27.6-43.9,49.1&#xd;&#xa;&#x9;&#x9;C660.7,751.4,508,811.3,442.9,810s-97.6-67.6-120.4-87.9c-22.8-20.2-28.2-28.9-16.3-33.6c11.9-4.7,44.5,15.5,87.9,5.2&#xd;&#xa;&#x9;&#x9;s148.4-35.7,172.5-67.2s-22.2-56-27.7-121.4c-5.4-65.5-30.1-224.4-4.9-271.3c25.2-46.9,124.8-22.8,156.2-10.3&#xd;&#xa;&#x9;&#x9;C721.7,235.9,719.3,259.6,724.4,311.3z"/>
            </g>
            <g>
                <path class="st0" d="M313.6,285.3c-5.2,51.7,8.7,160.6,3.3,222.2c-5.4,61.6-37.2,114.6-35.8,147.3c1.4,32.7-8.4,27.6,43.9,49.1&#xd;&#xa;&#x9;&#x9;c52.4,21.5,205.1,81.4,270.2,80.1s97.6-67.6,120.4-87.9c22.8-20.2,28.2-28.9,16.3-33.6c-11.9-4.7-44.5,15.5-87.9,5.2&#xd;&#xa;&#x9;&#x9;S495.6,632,471.5,600.5c-24.1-31.4,22.2-56,27.7-121.4s30.1-224.4,4.9-271.3c-25.2-46.9-124.8-22.8-156.2-10.3&#xd;&#xa;&#x9;&#x9;C316.3,209.9,318.7,233.6,313.6,285.3z"/>
            </g>
            <g>
                <path class="st1" d="M632.8,629l31.4,11.2l177,63.5C906.3,727.2,950,789.1,950,858.5V967H774.1l-475-2.4L74,967V860.7&#xd;&#xa;&#x9;&#x9;c0-69.4,43.7-131.5,108.9-154.8l176.9-63.5l0.2-0.2l30.4-10.9v-0.2h0.5l0.4-0.1l0.1,0.1h241.1l0.1-1.6L632.8,629z"/>
            </g>
            <g>
                <path class="st2" d="M634,514v125.9L515.5,751L398.9,639.9L397,514H634z"/>
            </g>
            <g>
                <g>
                    <defs>
                        <path d="M634,514c0,38.3,0,76.5,0,114.8L533,765l-79-192.8l49.9-58.2H634z" id="SVGID_1_"/>
                    </defs>
                    <clipPath id="SVGID_2_">
                        <use xlink:href="#SVGID_1_" style="overflow:visible;"/>
                    </clipPath>
                    <path class="st3" d="M454,765h180H454z"/>
                    <rect height="1.3" class="st3" x="454" y="763.7" width="180"/>
                    <rect height="0.6" class="st3" x="454" y="763.1" width="180"/>
                    <rect height="0.6" class="st4" x="454" y="762.4" width="180"/>
                    <rect height="0.6" class="st4" x="454" y="761.8" width="180"/>
                    <rect height="0.6" class="st3" x="454" y="761.1" width="180"/>
                    <rect height="1.3" class="st3" x="454" y="759.9" width="180"/>
                    <rect height="1.3" class="st3" x="454" y="758.6" width="180"/>
                    <rect height="1.3" class="st3" x="454" y="757.3" width="180"/>
                    <rect height="1.3" class="st3" x="454" y="756" width="180"/>
                    <rect height="1.3" class="st3" x="454" y="754.7" width="180"/>
                    <rect height="1.3" class="st3" x="454" y="753.4" width="180"/>
                    <rect height="1.3" class="st3" x="454" y="752.1" width="180"/>
                    <rect height="1.3" class="st3" x="454" y="750.8" width="180"/>
                    <rect height="1.3" class="st3" x="454" y="749.6" width="180"/>
                    <rect height="1.3" class="st3" x="454" y="748.3" width="180"/>
                    <rect height="1.3" class="st3" x="454" y="747" width="180"/>
                    <rect height="1.3" class="st3" x="454" y="745.7" width="180"/>
                    <rect height="1.3" class="st3" x="454" y="744.4" width="180"/>
                    <rect height="1.3" class="st3" x="454" y="743.1" width="180"/>
                    <rect height="1.3" class="st3" x="454" y="741.8" width="180"/>
                    <rect height="1.3" class="st3" x="454" y="740.5" width="180"/>
                    <rect height="1.3" class="st3" x="454" y="739.3" width="180"/>
                    <rect height="1.3" class="st3" x="454" y="738" width="180"/>
                    <rect height="1.3" class="st3" x="454" y="736.7" width="180"/>
                    <rect height="1.3" class="st3" x="454" y="735.4" width="180"/>
                    <rect height="1.3" class="st3" x="454" y="734.1" width="180"/>
                    <rect height="1.3" class="st3" x="454" y="732.8" width="180"/>
                    <rect height="0.6" class="st3" x="454" y="732.2" width="180"/>
                    <rect height="0.6" class="st4" x="454" y="731.5" width="180"/>
                    <rect height="0.6" class="st4" x="454" y="730.9" width="180"/>
                    <rect height="0.6" class="st3" x="454" y="730.2" width="180"/>
                    <rect height="1.3" class="st3" x="454" y="729" width="180"/>
                    <rect height="1.3" class="st3" x="454" y="727.7" width="180"/>
                    <rect height="1.3" class="st3" x="454" y="726.4" width="180"/>
                    <rect height="0.6" class="st3" x="454" y="725.7" width="180"/>
                    <rect height="0.6" class="st4" x="454" y="725.1" width="180"/>
                    <rect height="0.6" class="st4" x="454" y="724.5" width="180"/>
                    <rect height="0.6" class="st3" x="454" y="723.8" width="180"/>
                    <rect height="1.3" class="st3" x="454" y="722.5" width="180"/>
                    <rect height="0.6" class="st3" x="454" y="721.9" width="180"/>
                    <rect height="0.6" class="st4" x="454" y="721.2" width="180"/>
                    <rect height="0.6" class="st4" x="454" y="720.6" width="180"/>
                    <rect height="0.6" class="st3" x="454" y="719.9" width="180"/>
                    <rect height="1.3" class="st3" x="454" y="718.7" width="180"/>
                    <rect height="1.3" class="st3" x="454" y="717.4" width="180"/>
                    <rect height="1.3" class="st3" x="454" y="716.1" width="180"/>
                    <rect height="1.3" class="st3" x="454" y="714.8" width="180"/>
                    <rect height="1.3" class="st3" x="454" y="713.5" width="180"/>
                    <rect height="1.3" class="st3" x="454" y="712.2" width="180"/>
                    <rect height="1.3" class="st3" x="454" y="710.9" width="180"/>
                    <rect height="1.3" class="st3" x="454" y="709.7" width="180"/>
                    <rect height="1.3" class="st3" x="454" y="708.4" width="180"/>
                    <rect height="1.3" class="st3" x="454" y="707.1" width="180"/>
                    <rect height="1.3" class="st3" x="454" y="705.8" width="180"/>
                    <rect height="1.3" class="st3" x="454" y="704.5" width="180"/>
                    <rect height="1.3" class="st3" x="454" y="703.2" width="180"/>
                    <rect height="1.3" class="st3" x="454" y="701.9" width="180"/>
                    <rect height="1.3" class="st3" x="454" y="700.6" width="180"/>
                    <rect height="1.3" class="st3" x="454" y="699.4" width="180"/>
                    <rect height="0.6" class="st3" x="454" y="698.7" width="180"/>
                    <rect height="0.6" class="st5" x="454" y="698.1" width="180"/>
                    <rect height="0.6" class="st5" x="454" y="697.4" width="180"/>
                    <rect height="0.6" class="st3" x="454" y="696.8" width="180"/>
                    <rect height="0.6" class="st3" x="454" y="696.1" width="180"/>
                    <rect height="0.6" class="st5" x="454" y="695.5" width="180"/>
                    <rect height="0.6" class="st5" x="454" y="694.8" width="180"/>
                    <rect height="0.6" class="st3" x="454" y="694.2" width="180"/>
                    <rect height="1.3" class="st3" x="454" y="692.9" width="180"/>
                    <rect height="1.3" class="st3" x="454" y="691.6" width="180"/>
                    <rect height="1.3" class="st3" x="454" y="690.3" width="180"/>
                    <rect height="1.3" class="st3" x="454" y="689.1" width="180"/>
                    <rect height="1.3" class="st3" x="454" y="687.8" width="180"/>
                    <rect height="1.3" class="st3" x="454" y="686.5" width="180"/>
                    <rect height="1.3" class="st3" x="454" y="685.2" width="180"/>
                    <rect height="1.3" class="st3" x="454" y="683.9" width="180"/>
                    <rect height="1.3" class="st3" x="454" y="682.6" width="180"/>
                    <rect height="1.3" class="st3" x="454" y="681.3" width="180"/>
                    <rect height="1.3" class="st3" x="454" y="680" width="180"/>
                    <rect height="1.3" class="st3" x="454" y="678.8" width="180"/>
                    <rect height="1.3" class="st3" x="454" y="677.5" width="180"/>
                    <rect height="1.3" class="st3" x="454" y="676.2" width="180"/>
                    <rect height="1.3" class="st3" x="454" y="674.9" width="180"/>
                    <rect height="1.3" class="st3" x="454" y="673.6" width="180"/>
                    <rect height="1.3" class="st3" x="454" y="672.3" width="180"/>
                    <rect height="1.3" class="st3" x="454" y="671" width="180"/>
                    <rect height="1.3" class="st3" x="454" y="669.7" width="180"/>
                    <rect height="0.6" class="st3" x="454" y="669.1" width="180"/>
                    <rect height="0.6" class="st4" x="454" y="668.5" width="180"/>
                    <rect height="0.6" class="st4" x="454" y="667.8" width="180"/>
                    <rect height="0.6" class="st3" x="454" y="667.2" width="180"/>
                    <rect height="0.6" class="st3" x="454" y="666.5" width="180"/>
                    <rect height="0.6" class="st4" x="454" y="665.9" width="180"/>
                    <rect height="0.6" class="st4" x="454" y="665.2" width="180"/>
                    <rect height="0.6" class="st3" x="454" y="664.6" width="180"/>
                    <rect height="1.3" class="st3" x="454" y="663.3" width="180"/>
                    <rect height="0.6" class="st3" x="454" y="662.7" width="180"/>
                    <rect height="0.6" class="st6" x="454" y="662" width="180"/>
                    <rect height="0.6" class="st6" x="454" y="661.4" width="180"/>
                    <rect height="0.6" class="st3" x="454" y="660.7" width="180"/>
                    <rect height="1.3" class="st3" x="454" y="659.5" width="180"/>
                    <rect height="1.3" class="st3" x="454" y="658.2" width="180"/>
                    <rect height="1.3" class="st3" x="454" y="656.9" width="180"/>
                    <rect height="0.6" class="st3" x="454" y="656.2" width="180"/>
                    <rect height="0.6" class="st4" x="454" y="655.6" width="180"/>
                    <rect height="0.6" class="st4" x="454" y="654.9" width="180"/>
                    <rect height="0.6" class="st3" x="454" y="654.3" width="180"/>
                    <rect height="1.3" class="st3" x="454" y="653" width="180"/>
                    <rect height="1.3" class="st3" x="454" y="651.7" width="180"/>
                    <rect height="0.6" class="st3" x="454" y="651.1" width="180"/>
                    <rect height="0.6" class="st5" x="454" y="650.4" width="180"/>
                    <rect height="0.6" class="st5" x="454" y="649.8" width="180"/>
                    <rect height="0.6" class="st3" x="454" y="649.2" width="180"/>
                    <rect height="1.3" class="st3" x="454" y="647.9" width="180"/>
                    <rect height="1.3" class="st3" x="454" y="646.6" width="180"/>
                    <rect height="1.3" class="st3" x="454" y="645.3" width="180"/>
                    <rect height="1.3" class="st3" x="454" y="644" width="180"/>
                    <rect height="1.3" class="st3" x="454" y="642.7" width="180"/>
                    <rect height="0.6" class="st3" x="454" y="642.1" width="180"/>
                    <rect height="0.6" class="st4" x="454" y="641.4" width="180"/>
                    <rect height="1.3" class="st4" x="454" y="640.1" width="180"/>
                    <rect height="0.6" class="st4" x="454" y="639.5" width="180"/>
                    <rect height="0.6" class="st3" x="454" y="638.9" width="180"/>
                    <rect height="1.3" class="st3" x="454" y="637.6" width="180"/>
                    <rect height="0.6" class="st3" x="454" y="636.9" width="180"/>
                    <rect height="0.6" class="st4" x="454" y="636.3" width="180"/>
                    <rect height="0.6" class="st4" x="454" y="635.6" width="180"/>
                    <rect height="0.6" class="st6" x="454" y="635" width="180"/>
                    <rect height="0.6" class="st6" x="454" y="634.4" width="180"/>
                    <rect height="0.6" class="st3" x="454" y="633.7" width="180"/>
                    <rect height="0.6" class="st3" x="454" y="633.1" width="180"/>
                    <rect height="0.6" class="st5" x="454" y="632.4" width="180"/>
                    <rect height="0.6" class="st5" x="454" y="631.8" width="180"/>
                    <rect height="0.6" class="st3" x="454" y="631.1" width="180"/>
                    <rect height="0.6" class="st3" x="454" y="630.5" width="180"/>
                    <rect height="0.6" class="st4" x="454" y="629.8" width="180"/>
                    <rect height="0.6" class="st4" x="454" y="629.2" width="180"/>
                    <rect height="0.6" class="st3" x="454" y="628.6" width="180"/>
                    <rect height="1.3" class="st3" x="454" y="627.3" width="180"/>
                    <rect height="1.3" class="st3" x="454" y="626" width="180"/>
                    <rect height="1.3" class="st3" x="454" y="624.7" width="180"/>
                    <rect height="1.3" class="st3" x="454" y="623.4" width="180"/>
                    <rect height="1.3" class="st3" x="454" y="622.1" width="180"/>
                    <rect height="1.3" class="st3" x="454" y="620.8" width="180"/>
                    <rect height="1.3" class="st3" x="454" y="619.5" width="180"/>
                    <rect height="1.3" class="st3" x="454" y="618.3" width="180"/>
                    <rect height="1.3" class="st3" x="454" y="617" width="180"/>
                    <rect height="1.3" class="st3" x="454" y="615.7" width="180"/>
                    <rect height="1.3" class="st3" x="454" y="614.4" width="180"/>
                    <rect height="1.3" class="st3" x="454" y="613.1" width="180"/>
                    <rect height="0.6" class="st3" x="454" y="612.5" width="180"/>
                    <rect height="0.6" class="st4" x="454" y="611.8" width="180"/>
                    <rect height="0.6" class="st4" x="454" y="611.2" width="180"/>
                    <rect height="0.6" class="st3" x="454" y="610.5" width="180"/>
                    <rect height="1.3" class="st3" x="454" y="609.3" width="180"/>
                    <rect height="1.3" class="st3" x="454" y="608" width="180"/>
                    <rect height="0.6" class="st3" x="454" y="607.3" width="180"/>
                    <rect height="0.6" class="st4" x="454" y="606.7" width="180"/>
                    <rect height="0.6" class="st4" x="454" y="606" width="180"/>
                    <rect height="0.6" class="st3" x="454" y="605.4" width="180"/>
                    <rect height="0.6" class="st3" x="454" y="604.7" width="180"/>
                    <rect height="0.6" class="st4" x="454" y="604.1" width="180"/>
                    <rect height="0.6" class="st4" x="454" y="603.5" width="180"/>
                    <rect height="0.6" class="st3" x="454" y="602.8" width="180"/>
                    <rect height="1.3" class="st3" x="454" y="601.5" width="180"/>
                    <rect height="1.3" class="st3" x="454" y="600.2" width="180"/>
                    <rect height="1.3" class="st3" x="454" y="599" width="180"/>
                    <rect height="1.3" class="st3" x="454" y="597.7" width="180"/>
                    <rect height="1.3" class="st3" x="454" y="596.4" width="180"/>
                    <rect height="1.3" class="st3" x="454" y="595.1" width="180"/>
                    <rect height="1.3" class="st3" x="454" y="593.8" width="180"/>
                    <rect height="1.3" class="st3" x="454" y="592.5" width="180"/>
                    <rect height="1.3" class="st3" x="454" y="591.2" width="180"/>
                    <rect height="1.3" class="st3" x="454" y="589.9" width="180"/>
                    <rect height="1.3" class="st3" x="454" y="588.7" width="180"/>
                    <rect height="1.3" class="st3" x="454" y="587.4" width="180"/>
                    <rect height="1.3" class="st3" x="454" y="586.1" width="180"/>
                    <rect height="1.3" class="st3" x="454" y="584.8" width="180"/>
                    <rect height="1.3" class="st3" x="454" y="583.5" width="180"/>
                    <rect height="1.3" class="st3" x="454" y="582.2" width="180"/>
                    <rect height="1.3" class="st3" x="454" y="580.9" width="180"/>
                    <rect height="1.3" class="st3" x="454" y="579.6" width="180"/>
                    <rect height="1.3" class="st3" x="454" y="578.4" width="180"/>
                    <rect height="1.3" class="st3" x="454" y="577.1" width="180"/>
                    <rect height="1.3" class="st3" x="454" y="575.8" width="180"/>
                    <rect height="1.3" class="st3" x="454" y="574.5" width="180"/>
                    <rect height="1.3" class="st3" x="454" y="573.2" width="180"/>
                    <rect height="1.3" class="st3" x="454" y="571.9" width="180"/>
                    <rect height="1.3" class="st3" x="454" y="570.6" width="180"/>
                    <rect height="1.3" class="st3" x="454" y="569.3" width="180"/>
                    <rect height="1.3" class="st3" x="454" y="568.1" width="180"/>
                    <rect height="1.3" class="st3" x="454" y="566.8" width="180"/>
                    <rect height="1.3" class="st3" x="454" y="565.5" width="180"/>
                    <rect height="1.3" class="st3" x="454" y="564.2" width="180"/>
                    <rect height="1.3" class="st3" x="454" y="562.9" width="180"/>
                    <rect height="1.3" class="st3" x="454" y="561.6" width="180"/>
                    <rect height="1.3" class="st3" x="454" y="560.3" width="180"/>
                    <rect height="1.3" class="st3" x="454" y="559.1" width="180"/>
                    <rect height="1.3" class="st3" x="454" y="557.8" width="180"/>
                    <rect height="1.3" class="st3" x="454" y="556.5" width="180"/>
                    <rect height="1.3" class="st3" x="454" y="555.2" width="180"/>
                    <rect height="1.3" class="st3" x="454" y="553.9" width="180"/>
                    <rect height="1.3" class="st3" x="454" y="552.6" width="180"/>
                    <rect height="0.6" class="st3" x="454" y="552" width="180"/>
                    <rect height="0.6" class="st4" x="454" y="551.3" width="180"/>
                    <rect height="0.6" class="st4" x="454" y="550.7" width="180"/>
                    <rect height="0.6" class="st3" x="454" y="550" width="180"/>
                    <rect height="1.3" class="st3" x="454" y="548.8" width="180"/>
                    <rect height="1.3" class="st3" x="454" y="547.5" width="180"/>
                    <rect height="1.3" class="st3" x="454" y="546.2" width="180"/>
                    <rect height="1.3" class="st3" x="454" y="544.9" width="180"/>
                    <rect height="1.3" class="st3" x="454" y="543.6" width="180"/>
                    <rect height="1.3" class="st3" x="454" y="542.3" width="180"/>
                    <rect height="1.3" class="st3" x="454" y="541" width="180"/>
                    <rect height="1.3" class="st3" x="454" y="539.7" width="180"/>
                    <rect height="1.3" class="st3" x="454" y="538.5" width="180"/>
                    <rect height="1.3" class="st3" x="454" y="537.2" width="180"/>
                    <rect height="1.3" class="st3" x="454" y="535.9" width="180"/>
                    <rect height="1.3" class="st3" x="454" y="534.6" width="180"/>
                    <rect height="1.3" class="st3" x="454" y="533.3" width="180"/>
                    <rect height="1.3" class="st3" x="454" y="532" width="180"/>
                    <rect height="1.3" class="st3" x="454" y="530.7" width="180"/>
                    <rect height="1.3" class="st3" x="454" y="529.4" width="180"/>
                    <rect height="1.3" class="st3" x="454" y="528.2" width="180"/>
                    <rect height="1.3" class="st3" x="454" y="526.9" width="180"/>
                    <rect height="1.3" class="st3" x="454" y="525.6" width="180"/>
                    <rect height="1.3" class="st3" x="454" y="524.3" width="180"/>
                    <rect height="1.3" class="st3" x="454" y="523" width="180"/>
                    <rect height="1.3" class="st3" x="454" y="521.7" width="180"/>
                    <rect height="1.3" class="st3" x="454" y="520.4" width="180"/>
                    <rect height="1.3" class="st3" x="454" y="519.1" width="180"/>
                    <rect height="1.3" class="st3" x="454" y="517.9" width="180"/>
                    <rect height="1.3" class="st3" x="454" y="516.6" width="180"/>
                    <rect height="1.3" class="st3" x="454" y="515.3" width="180"/>
                    <rect height="1.3" class="st3" x="454" y="514" width="180"/>
                    <path class="st3" d="M634,514H454H634z"/>
                </g>
            </g>
            <g>
                <path class="st0" d="M311,279c0-118.2,91.1-214,203.5-214S718,160.8,718,279s-91.1,214-203.5,214S311,397.2,311,279z"/>
            </g>
            <g>
                <path class="st7" d="M513.3,263.7c52.3,6.9,83.6,50.1,137.7,65.9l27.9,6.6c0.6,8.7,24.4-20,24.4-11l-0.4,11.4l0.8-0.2&#xd;&#xa;&#x9;&#x9;c2-0.2,4.1,0,6.1,0.5c15.9,4,23.5,28.7,16.9,55.3c-5.8,23.3-20.5,40.2-34.8,41.4l-5.5-0.4l-5.5,16c-31.6,81-93.2,136-164,136&#xd;&#xa;&#x9;&#x9;c-70.8,0-132.4-55-164-136l-5.5-16l-5.5,0.4c-14.3-1.2-29-18.1-34.8-41.4c-6.6-26.6,0.9-51.3,16.9-55.3c2-0.5,4-0.6,6.1-0.5&#xd;&#xa;&#x9;&#x9;l0.8,0.2l-0.4-11.4c0-9,0.3-17.8,1-26.6l1-8.8l4.6-1.5C391.2,272.5,461,256.8,513.3,263.7z"/>
            </g>
            <g>
                <path class="st0" d="M643.3,274.9l7.8,1.4c14.4,3,28.5,6.6,42.2,10.5l10.1,3.3l0.6,5.7c0.6,8.7,1,17.6,1,26.5&#xd;&#xa;&#x9;&#x9;c0,17.9-1.3,35.4-3.8,52.3l-2.5,13.6l-2.3-3.4c-2.2-3.9-4.4-8.4-7-13.2c-10.5-19.3-1.1-67.7-25.8-86.3c-3.1-2.3-6.6-4.5-10.5-6.4&#xd;&#xa;&#x9;&#x9;L643.3,274.9z M419,208l-20.9,37.4c-5.3,2.1,5.7,24.4-18.7,34.9c-29.1,12.5-33.8,90.9-41.2,110.5c-7.4,19.5-2.3,4.8-3.1,6.7&#xd;&#xa;&#x9;&#x9;l-0.3,0.9l-4.4-23.7c-1.3-8.4-2.2-17-2.9-25.8l-0.5-14l1.5-0.1l0.9,0.2l-0.4-11.4c0-9,0.3-17.8,1-26.5l1-8.8l4.7-1.5&#xd;&#xa;&#x9;&#x9;c13.7-4,30.8-41.1,45.2-44.1C393.9,240.4,405.7,210.3,419,208z"/>
            </g>
            <g>
                <path class="st7" d="M350,362.2c1.5-13.8,31-110.7,73.1-122.5c42.1-11.8,138,41.3,179.7,51.8c41.7,10.4,56.9-3.2,70.4,10.7&#xd;&#xa;&#x9;&#x9;c13.4,14,21.9,61,10.2,73.2c-11.7,12.2-51.4,4.6-80.4,0c-29-4.6-62.2-19-93.6-27.8c-31.4-8.8-68.5-27.3-95.1-24.9&#xd;&#xa;&#x9;&#x9;C387.8,325.1,348.6,376.1,350,362.2z"/>
            </g>
            <g>
                <path class="st0" d="M315.6,658L465,965.8h-39l0,0.2h-16.9H78V859.4c0-69.6,43.8-131.8,109-155.2L315.6,658z"/>
            </g>
            <g>
                <path class="st0" d="M710.4,657L561,964.8h39l0,0.2h16.9H948V858.4c0-69.6-43.8-131.8-109-155.2L710.4,657z"/>
            </g>
            <g>
                <rect height="155" class="st8" x="436" y="707" width="150"/>
            </g>
            <g>
                <path class="st9" d="M382.4,628.7l-42.6,15c-9.4,3.3-11.7,15.4-4.3,22l122.5,108.9c6.3,5.6,16.1,3.9,20.1-3.4l31.4-56.7&#xd;&#xa;&#x9;&#x9;c3.4-6.1,1.3-13.8-4.7-17.4l-111.2-67.3C390.1,627.9,386,627.4,382.4,628.7"/>
            </g>
            <g>
                <path class="st9" d="M639.9,628.7l42.4,15c9.3,3.3,11.7,15.4,4.3,22L564.9,774.7c-6.2,5.6-16,3.9-20-3.4l-31.2-56.7&#xd;&#xa;&#x9;&#x9;c-3.4-6.1-1.3-13.8,4.6-17.4l110.6-67.3C632.2,627.9,636.3,627.4,639.9,628.7"/>
            </g>
            <g>
                <path class="st9" d="M488,820.5c0-12.4,9.9-22.5,22-22.5c12.2,0,22,10.1,22,22.5s-9.8,22.5-22,22.5C497.9,843,488,832.9,488,820.5z&#xd;&#xa;&#x9;&#x9;"/>
            </g>
            <g>
                <path class="st9" d="M488,896.5c0-12.4,9.9-22.5,22-22.5c12.2,0,22,10.1,22,22.5s-9.8,22.5-22,22.5C497.9,919,488,908.9,488,896.5z&#xd;&#xa;&#x9;&#x9;"/>
            </g>
        </g>
    </g>
</svg>
