<?xml version="1.0" encoding="UTF-8" standalone="yes"?><svg xmlns="http://www.w3.org/2000/svg" xmlns:xlink="http://www.w3.org/1999/xlink" version="1.2" baseProfile="tiny" x="0" y="0" width="256" height="256" viewBox="0 0 256 256"><defs/><defs/><defs/><defs/><defs/><g transform="matrix(9.14286,0,0,9.14286,-18.2857,-18.2857)"><g id="Page-1" fill="none" fill-rule="evenodd"><g id="分组-117" fill="#262626" fill-rule="nonzero" transform="matrix(1,0,0,1,-255,-254)"><g id="qiyejianjie" transform="matrix(1,0,0,1,257,256)"><path id="形状" fill="#ffffff" fill-opacity="1" stroke-width="9.14142" d="M 27.038 25.988 C 27.562 25.988 28 26.424 28 27.038 C 27.9946 27.567 27.567 27.9946 27.038 28 L 0.96 28 C 0.44 28 0 27.562 0 26.95 C 0 26.424 0.438 25.988 0.962 25.988 L 2.45 25.988 L 2.45 1.4 C 2.45 0.612 3.062 0 3.85 0 L 16.712 0 C 17.5 0 18.112 0.612 18.112 1.4 L 18.112 9.188 L 23.626 10.938 C 24.762 11.288 25.55 12.338 25.55 13.562 L 25.55 25.988 L 27.038 25.988 M 11.55 5.86 L 11.55 8.31 L 15.488 8.31 L 15.488 5.862 L 11.55 5.862 C 11.638 5.774 11.55 5.774 11.55 5.862 L 11.55 5.86 M 9.012 21.348 L 9.012 18.9 L 5.076 18.9 L 5.076 21.35 L 9.012 21.35 C 9.012 21.438 9.012 21.35 9.012 21.35 L 9.012 21.348 M 5.076 14.874 L 9.012 14.874 L 9.012 12.426 L 5.076 12.426 L 5.076 14.878 L 5.076 14.874 M 5.076 8.314 L 9.012 8.314 L 9.012 5.86 L 5.076 5.86 L 5.076 8.31 L 5.076 8.314 M 11.55 12.338 L 11.55 14.876 L 15.488 14.876 L 15.488 12.336 L 11.55 12.336 C 11.638 12.336 11.55 12.336 11.55 12.336 L 11.55 12.338 M 15.576 21.35 L 15.576 18.9 L 11.636 18.9 L 11.636 21.35 L 15.576 21.35 C 15.576 21.438 15.576 21.35 15.576 21.35 M 19.776 24.238 L 21.788 24.238 L 21.788 20.212 L 19.776 20.212 L 19.776 24.238 M 19.776 18.376 L 21.788 18.376 L 21.788 14.35 L 19.776 14.35 L 19.776 18.376"/></g></g><g id="IIIII-Copy-15" transform="matrix(1,0,0,1,-256,-256)"/></g></g></svg>
