<?xml version="1.0" encoding="UTF-8" standalone="yes"?><svg xmlns="http://www.w3.org/2000/svg" xmlns:xlink="http://www.w3.org/1999/xlink" version="1.2" baseProfile="tiny" x="0" y="0" width="256" height="256" viewBox="0 0 256 256"><defs><linearGradient id="wps{44170820-b7f5-4fc1-9dae-2721ae9b8f13}@Accent1_0.40@Accent1_0.00" x1="0" y1="0.5" x2="1" y2="0.5" spreadMethod="pad" gradientUnits="objectBoundingBox" gradientTransform="matrix(0.707107,0.707107,-0.707107,0.707107,0.5,-0.207107)"><stop offset="0" stop-color="#87a9ff" stop-opacity="1"/><stop offset="0.93" stop-color="#376fff" stop-opacity="1"/></linearGradient><linearGradient id="wps{1e6abb6e-1a77-4289-99db-c67217b9cee1}@Accent1_0.40@Accent1_0.00" x1="0" y1="0.5" x2="1" y2="0.5" spreadMethod="pad" gradientUnits="objectBoundingBox" gradientTransform="matrix(0.707107,0.707107,-0.707107,0.707107,0.5,-0.207107)"><stop offset="0" stop-color="#8fe293" stop-opacity="1"/><stop offset="0.93" stop-color="#45cf4b" stop-opacity="1"/></linearGradient><linearGradient id="wps{2a0763f9-f609-4b86-8d7c-cd54728dd757}@Accent2_0.40@Accent2_0.00" x1="0" y1="0.5" x2="1" y2="0.5" spreadMethod="pad" gradientUnits="objectBoundingBox" gradientTransform="matrix(0.707107,0.707107,-0.707107,0.707107,0.5,-0.207107)"><stop offset="0" stop-color="#878ba2" stop-opacity="1"/><stop offset="0.93" stop-color="#444758" stop-opacity="1"/></linearGradient><linearGradient id="wps{60449f35-fa73-4b2d-accb-b37c1037eb86}@Accent1_0.40@Accent1_0.00" x1="0" y1="0.5" x2="1" y2="0.5" spreadMethod="pad" gradientUnits="objectBoundingBox" gradientTransform="matrix(0.707107,0.707107,-0.707107,0.707107,0.5,-0.207107)"><stop offset="0" stop-color="#f89d8f" stop-opacity="1"/><stop offset="0.93" stop-color="#f35b44" stop-opacity="1"/></linearGradient></defs><defs/><defs/><defs/><defs/><defs/><defs/><defs/><defs/><defs/><defs/><g transform="matrix(9.84818,0,0,9.84818,-29.5445,-24.6562)"><g id="Page-1" fill="none" fill-rule="evenodd" stroke="none" stroke-width="1"><g id="分组-172" fill="#262626" fill-rule="nonzero" transform="matrix(1,0,0,1,-190,-254)"><g id="xiangmujindu" transform="matrix(1,0,0,1,193,257)"><path id="形状" fill="url(#wps{2a0763f9-f609-4b86-8d7c-cd54728dd757}@Accent2_0.40@Accent2_0.00)" d="M 24.4799 0.0106804 L 1.51294 0.0106804 C 0.677976 0.0106804 0 0.663125 0 1.46659 L 0 5.48955 C 0 6.29313 0.677976 6.94552 1.51294 6.94552 L 24.4799 6.94552 C 25.3148 6.94552 25.9946 6.29313 25.9946 5.48955 L 25.9946 1.46659 C 25.9946 0.663125 25.3148 0.0106804 24.4799 0.0106804 M 24.1031 5.12526 L 17.7911 5.12526 L 17.7911 1.8311 L 24.1032 1.8311 L 24.1032 5.12526 L 24.1031 5.12526 M 24.4799 9.03262 L 1.51294 9.03262 C 0.677976 9.03262 0 9.68501 0 10.4885 L 0 14.5116 C 0 15.3151 0.677976 15.9693 1.51294 15.9693 L 24.4799 15.9693 C 25.3148 15.9693 25.9946 15.3151 25.9946 14.5116 L 25.9946 10.4885 C 25.9946 9.68501 25.3148 9.03262 24.4799 9.03262 M 24.1031 14.1488 L 10.2707 14.1488 L 10.2707 10.853 L 24.1031 10.853 L 24.1031 14.1488 M 24.4799 18.0563 L 1.51294 18.0563 C 0.677976 18.0563 0 18.7087 0 19.5122 L 0 23.5353 C 0 24.3388 0.677976 24.9912 1.51294 24.9912 L 24.4799 24.9912 C 25.3148 24.9912 25.9946 24.3388 25.9946 23.5353 L 25.9946 19.5122 C 25.9946 18.7087 25.3148 18.0563 24.4799 18.0563 M 24.1031 23.1709 L 14.4823 23.1709 L 14.4823 19.8767 L 24.1031 19.8767 L 24.1031 23.1709"/></g></g><g id="IIIII-Copy-29" transform="matrix(1,0,0,1,-192,-256)"/></g></g></svg>
